<svg width="133" height="133" viewBox="0 0 133 133" fill="none" xmlns="http://www.w3.org/2000/svg">
<rect x="1.5" y="1.5" width="129.8" height="129.8" rx="64.9" fill="#1A2524"/>
<rect x="1.5" y="1.5" width="129.8" height="129.8" rx="64.9" stroke="#11CABE" stroke-width="3"/>
<rect x="24.32" y="24.7891" width="84" height="84" rx="42" fill="#173836"/>
<g clip-path="url(#clip0_45_4372)">
<g clip-path="url(#clip1_45_4372)">
<g clip-path="url(#clip2_45_4372)">
<path d="M46.6331 61.3552V76.1733C46.6357 78.3558 47.5039 80.4482 49.0471 81.9914C50.5904 83.5348 52.6828 84.4029 54.8653 84.4055H77.9156C80.0982 84.4029 82.1905 83.5348 83.7339 81.9914C85.2771 80.4482 86.1453 78.3558 86.1479 76.1733V61.3552H46.6331ZM69.6834 77.8197H56.5118C56.0751 77.8197 55.6564 77.6462 55.3476 77.3375C55.0388 77.0287 54.8653 76.6099 54.8653 76.1733C54.8653 75.7366 55.0388 75.3178 55.3476 75.009C55.6564 74.7003 56.0751 74.5268 56.5118 74.5268H69.6834C70.1201 74.5268 70.5389 74.7003 70.8476 75.009C71.1564 75.3178 71.3298 75.7366 71.3298 76.1733C71.3298 76.6099 71.1564 77.0287 70.8476 77.3375C70.5389 77.6462 70.1201 77.8197 69.6834 77.8197ZM76.2692 71.2339H56.5118C56.0751 71.2339 55.6564 71.0604 55.3476 70.7517C55.0388 70.4429 54.8653 70.0242 54.8653 69.5875C54.8653 69.1508 55.0388 68.732 55.3476 68.4232C55.6564 68.1145 56.0751 67.941 56.5118 67.941H76.2692C76.7059 67.941 77.1247 68.1145 77.4335 68.4232C77.7422 68.732 77.9156 69.1508 77.9156 69.5875C77.9156 70.0242 77.7422 70.4429 77.4335 70.7517C77.1247 71.0604 76.7059 71.2339 76.2692 71.2339ZM86.1479 58.0623V56.4158C86.1453 54.2333 85.2771 52.1409 83.7339 50.5977C82.1905 49.0544 80.0982 48.1862 77.9156 48.1836H54.8653C52.6828 48.1862 50.5904 49.0544 49.0471 50.5977C47.5039 52.1409 46.6357 54.2333 46.6331 56.4158V58.0623H86.1479ZM63.0976 51.4765C63.4232 51.4765 63.7415 51.5731 64.0123 51.754C64.2831 51.9349 64.4941 52.192 64.6187 52.4929C64.7433 52.7937 64.7759 53.1248 64.7124 53.4441C64.6489 53.7635 64.492 54.0569 64.2618 54.2872C64.0315 54.5174 63.7381 54.6742 63.4188 54.7378C63.0995 54.8013 62.7684 54.7687 62.4675 54.6441C62.1666 54.5195 61.9095 54.3084 61.7286 54.0377C61.5477 53.7669 61.4512 53.4486 61.4512 53.123C61.4512 52.6863 61.6246 52.2675 61.9334 51.9587C62.2421 51.65 62.6609 51.4765 63.0976 51.4765ZM58.1582 51.4765C58.4839 51.4765 58.8022 51.5731 59.073 51.754C59.3437 51.9349 59.5548 52.192 59.6794 52.4929C59.804 52.7937 59.8365 53.1248 59.7731 53.4441C59.7095 53.7635 59.5527 54.0569 59.3225 54.2872C59.0922 54.5174 58.7989 54.6742 58.4794 54.7378C58.1601 54.8013 57.829 54.7687 57.5282 54.6441C57.2274 54.5195 56.9702 54.3084 56.7893 54.0377C56.6084 53.7669 56.5118 53.4486 56.5118 53.123C56.5118 52.6863 56.6853 52.2675 56.994 51.9587C57.3028 51.65 57.7216 51.4765 58.1582 51.4765ZM53.2189 51.4765C53.5445 51.4765 53.8629 51.5731 54.1336 51.754C54.4044 51.9349 54.6154 52.192 54.74 52.4929C54.8646 52.7937 54.8972 53.1248 54.8337 53.4441C54.7702 53.7635 54.6134 54.0569 54.3831 54.2872C54.1528 54.5174 53.8595 54.6742 53.5401 54.7378C53.2207 54.8013 52.8897 54.7687 52.5888 54.6441C52.288 54.5195 52.0308 54.3084 51.8499 54.0377C51.669 53.7669 51.5724 53.4486 51.5724 53.123C51.5724 52.6863 51.7459 52.2675 52.0547 51.9587C52.3634 51.65 52.7822 51.4765 53.2189 51.4765Z" fill="#11CABE"/>
</g>
</g>
</g>
<defs>
<clipPath id="clip0_45_4372">
<rect width="40" height="37.32" fill="white" transform="translate(46.39 47.7402)"/>
</clipPath>
<clipPath id="clip1_45_4372">
<rect width="40" height="37.32" fill="white" transform="translate(46.39 47.7402)"/>
</clipPath>
<clipPath id="clip2_45_4372">
<rect width="39.9964" height="37.33" fill="white" transform="translate(46.3918 47.7402)"/>
</clipPath>
</defs>
</svg>
