<svg width="133" height="133" viewBox="0 0 133 133" fill="none" xmlns="http://www.w3.org/2000/svg">
<rect x="1.5" y="1.5" width="129.8" height="129.8" rx="64.9" fill="#1A2524"/>
<rect x="1.5" y="1.5" width="129.8" height="129.8" rx="64.9" stroke="#11CABE" stroke-width="3"/>
<rect x="24.39" y="24.3906" width="84" height="84" rx="42" fill="#173836"/>
<g clip-path="url(#clip0_45_4384)">
<g clip-path="url(#clip1_45_4384)">
<g clip-path="url(#clip2_45_4384)">
<path d="M46.9777 60.6306C46.6204 59.968 46.4549 59.2189 46.4997 58.4674C46.5445 57.7159 46.7979 56.9918 47.2314 56.3763C47.9397 55.337 48.8884 54.4839 49.9968 53.8894L62.4333 47.4167C63.6556 46.7811 65.013 46.4492 66.3908 46.4492C67.7686 46.4492 69.126 46.7811 70.3483 47.4167L82.7831 53.8944C83.8915 54.4889 84.8403 55.342 85.5486 56.3813C85.9821 56.9968 86.2354 57.7209 86.2802 58.4724C86.3251 59.2239 86.1595 59.973 85.8023 60.6356C85.4176 61.3632 84.8408 61.9713 84.1345 62.3937C83.4282 62.8161 82.6196 63.0367 81.7966 63.0314H50.985C50.1613 63.0365 49.3519 62.8154 48.6453 62.392C47.9386 61.9687 47.3618 61.3594 46.9777 60.6306ZM84.6284 82.927C84.6284 82.0476 84.2791 81.2041 83.6572 80.5823C83.0353 79.9604 82.192 79.6111 81.3125 79.6111V66.3473H77.9966V79.6111H73.0227V66.3473H69.7068V79.6111H63.0749V66.3473H59.7589V79.6111H54.785V66.3473H51.4691V79.6111C50.5897 79.6111 49.7463 79.9604 49.1244 80.5823C48.5025 81.2041 48.1532 82.0476 48.1532 82.927C47.7135 82.927 47.2918 83.1017 46.9808 83.4126C46.6699 83.7235 46.4952 84.1452 46.4952 84.5849C46.4952 85.0246 46.6699 85.4464 46.9808 85.7573C47.2918 86.0682 47.7135 86.2429 48.1532 86.2429H84.6284C85.0682 86.2429 85.4898 86.0682 85.8008 85.7573C86.1117 85.4464 86.2864 85.0246 86.2864 84.5849C86.2864 84.1452 86.1117 83.7235 85.8008 83.4126C85.4898 83.1017 85.0682 82.927 84.6284 82.927Z" fill="#11CABE"/>
</g>
</g>
</g>
<defs>
<clipPath id="clip0_45_4384">
<rect width="40" height="40.75" fill="white" transform="translate(46.39 46.0195)"/>
</clipPath>
<clipPath id="clip1_45_4384">
<rect width="40" height="40.75" fill="white" transform="translate(46.39 46.0195)"/>
</clipPath>
<clipPath id="clip2_45_4384">
<rect width="39.9954" height="40.75" fill="white" transform="translate(46.3923 46.0195)"/>
</clipPath>
</defs>
</svg>
