<svg width="133" height="133" viewBox="0 0 133 133" fill="none" xmlns="http://www.w3.org/2000/svg">
<rect x="1.5" y="1.5" width="129.8" height="129.8" rx="64.9" fill="#1A2524"/>
<rect x="1.5" y="1.5" width="129.8" height="129.8" rx="64.9" stroke="#11CABE" stroke-width="3"/>
<rect x="24.39" y="24.3906" width="84" height="84" rx="42" fill="#173836"/>
<g clip-path="url(#clip0_45_4366)">
<g clip-path="url(#clip1_45_4366)">
<g clip-path="url(#clip2_45_4366)">
<path d="M59.183 68.2141C57.727 68.2141 56.3038 67.7824 55.0932 66.9734C53.8826 66.1645 52.939 65.0148 52.3818 63.6697C51.8246 62.3245 51.6789 60.8443 51.9629 59.4163C52.247 57.9883 52.9481 56.6766 53.9776 55.6471C55.0072 54.6175 56.3189 53.9164 57.7469 53.6324C59.1749 53.3483 60.655 53.4941 62.0002 54.0513C63.3454 54.6085 64.4951 55.552 65.304 56.7626C66.1129 57.9732 66.5447 59.3965 66.5447 60.8525C66.5425 62.8042 65.7662 64.6754 64.3861 66.0556C63.006 67.4357 61.1348 68.212 59.183 68.2141ZM69.8164 86.2091H48.5496C48.1158 86.2091 47.6997 86.0368 47.3929 85.73C47.0861 85.4232 46.9137 85.0071 46.9137 84.5732V83.7553C46.9137 80.5012 48.2064 77.3805 50.5073 75.0795C52.8083 72.7786 55.929 71.486 59.183 71.486C62.4371 71.486 65.5579 72.7786 67.8588 75.0795C70.1597 77.3805 71.4524 80.5012 71.4524 83.7553V84.5732C71.4524 85.0071 71.28 85.4232 70.9733 85.73C70.6664 86.0368 70.2504 86.2091 69.8164 86.2091ZM75.5421 61.6705C74.0861 61.6705 72.6629 61.2387 71.4523 60.4298C70.2417 59.6209 69.2981 58.4712 68.741 57.126C68.1838 55.7808 68.038 54.3007 68.322 52.8727C68.6061 51.4447 69.3072 50.133 70.3367 49.1034C71.3663 48.0739 72.678 47.3728 74.106 47.0887C75.534 46.8047 77.0141 46.9505 78.3593 47.5076C79.7045 48.0648 80.8542 49.0084 81.6631 50.219C82.472 51.4296 82.9038 52.8529 82.9038 54.3088C82.9016 56.2606 82.1253 58.1318 80.7452 59.5119C79.3651 60.892 77.4939 61.6683 75.5421 61.6705ZM73.2176 64.9766C71.6939 65.1811 70.2289 65.698 68.9143 66.4948C67.5997 67.2918 66.4638 68.3516 65.5779 69.6079C69.2437 71.2727 72.1241 74.2902 73.6167 78.0296H84.5397C84.9736 78.0296 85.3896 77.8572 85.6964 77.5504C86.0033 77.2437 86.1756 76.8275 86.1756 76.3937V76.3315C86.1739 74.7008 85.8244 73.0893 85.1503 71.6045C84.4762 70.1197 83.4932 68.7957 82.2667 67.721C81.0404 66.6463 79.5987 65.8456 78.0383 65.3723C76.4778 64.8991 74.8343 64.7642 73.2176 64.9766Z" fill="#11CABE"/>
</g>
</g>
</g>
<defs>
<clipPath id="clip0_45_4366">
<rect width="40" height="40" fill="white" transform="translate(46.39 46.3906)"/>
</clipPath>
<clipPath id="clip1_45_4366">
<rect width="40" height="40" fill="white" transform="translate(46.39 46.3906)"/>
</clipPath>
<clipPath id="clip2_45_4366">
<rect width="40" height="40" fill="white" transform="translate(46.39 46.3906)"/>
</clipPath>
</defs>
</svg>
