<svg width="1914" height="1336" viewBox="0 0 1914 1336" fill="none" xmlns="http://www.w3.org/2000/svg">
<rect x="1239" y="849" width="1" height="549" transform="rotate(180 1239 849)" fill="#2DB69E"/>
<rect x="1532" y="722" width="1" height="549" transform="rotate(180 1532 722)" fill="#2DB69E"/>
<path fill-rule="evenodd" clip-rule="evenodd" d="M1915.3 0.464233C1915.41 0.13636 1915.61 -0.0447974 1915.81 0.00954612C1916.02 0.0620782 1916.18 0.339222 1916.23 0.703323L1992.5 522.645C2203.46 92.3356 2140.06 123.106 1992.69 525.408C1992.58 525.71 1992.38 525.864 1992.19 525.799C1991.99 525.734 1991.83 525.462 1991.79 525.109L1915.54 3.40601L1851.61 239.552C1851.48 239.967 1851.2 240.132 1850.96 239.931L1705.11 116.125L1623.05 272.193C1622.89 272.5 1622.63 272.564 1622.43 272.345L1531.58 173.454L1507.17 244.903C1507.17 244.919 1507.18 244.936 1507.19 244.952C1507.34 245.369 1507.28 245.93 1507.05 246.207L1506.48 246.878L1506.19 247.743C1506.04 248.16 1505.74 248.294 1505.51 248.051L1370.4 419.19C1370.22 419.416 1369.97 419.407 1369.8 419.168L1315.76 344.5L1238.57 296.305L1144.18 458.957C1144.16 458.995 1144.14 459.029 1144.11 459.058C1144.07 459.112 1144.02 459.154 1143.96 459.178L1054.02 500.763L956.518 733.283C956.427 733.5 956.286 733.632 956.135 733.641C955.984 733.649 955.839 733.534 955.74 733.328L883.99 583.048L835.243 638.401C835.011 638.665 834.704 638.542 834.556 638.125L773.241 465.855L699.567 542.412C699.406 542.579 699.217 542.568 699.066 542.412C698.888 542.597 698.658 542.57 698.493 542.316L652.128 470.887L585.123 692.411C585.004 692.802 584.745 692.98 584.513 692.828L432.197 593.435L364.837 769.479C364.708 769.818 364.467 769.955 364.254 769.814L268.459 706.622L160.058 924.449C159.963 924.639 159.828 924.747 159.685 924.747H109.345L56.9328 1027.71C56.7853 1028 56.5512 1028.08 56.3537 1027.92L0.287307 980.816C0.126798 980.681 0.0175706 980.402 0 980.086L0.967869 979.39L56.4439 1025.99L108.758 923.228C108.853 923.041 108.986 922.936 109.126 922.936H159.462L267.94 704.955C268.077 704.682 268.293 704.584 268.484 704.711L364.234 767.872L431.593 591.83C431.722 591.493 431.96 591.356 432.175 591.495L584.45 690.86L651.546 469.041C651.618 468.802 651.746 468.635 651.894 468.585C652.042 468.536 652.195 468.61 652.31 468.786L699.076 540.834L773.155 463.855C773.387 463.616 773.682 463.744 773.826 464.15L835.13 636.392L883.822 581.101C884.031 580.862 884.306 580.936 884.467 581.275L956.094 731.297L1053.33 499.417C1053.37 499.321 1053.42 499.241 1053.48 499.182C1053.52 499.14 1053.56 499.107 1053.61 499.086L1143.59 457.482L1238.1 294.613C1238.24 294.379 1238.43 294.301 1238.61 294.412L1316.17 342.835C1316.19 342.852 1316.22 342.874 1316.24 342.897C1316.27 342.919 1316.29 342.944 1316.31 342.971L1370.11 417.326L1504.97 246.524L1504.98 246.512L1505.75 245.588L1530.98 171.74C1531.13 171.318 1531.43 171.186 1531.67 171.442L1622.6 270.417L1704.64 114.403C1704.79 114.12 1705.02 114.042 1705.21 114.207L1850.96 237.933L1915.3 0.464233Z" fill="#2DB69E"/>
<path d="M261 692C261 688.134 264.134 685 268 685C271.866 685 275 688.134 275 692C275 695.866 271.866 699 268 699C264.134 699 261 695.866 261 692Z" fill="white"/>
<path d="M56.4854 1027.55L0 981.192V1333H1920.51L1921 57.147L1912.31 1L1847.52 237.577L1702.06 113.035L1620.08 270.303L1529.11 170.306L1504.61 243.031L1368.15 417.572L1314.66 343.937L1236.18 293.939L1141.71 457.571L1051.73 499.388L954.754 733.017C918.763 659.383 918.763 654.838 882.273 582.112L833.285 636.656L771.801 463.934L697.32 541.204L650.832 469.388L583.35 692.109L430.889 592.112L362.906 769.38L267.431 705.745L158.959 924.83H108.972L56.4854 1027.55Z" fill="url(#paint0_linear_147_76)"/>
<path d="M645 455C645 451.134 648.134 448 652 448C655.866 448 659 451.134 659 455C659 458.866 655.866 462 652 462C648.134 462 645 458.866 645 455Z" fill="white"/>
<path d="M1518 159C1518 151.82 1523.82 146 1531 146C1538.18 146 1544 151.82 1544 159C1544 166.18 1538.18 172 1531 172C1523.82 172 1518 166.18 1518 159Z" stroke="#2DB69E" stroke-width="2"/>
<path d="M255 692C255 684.82 260.82 679 268 679C275.18 679 281 684.82 281 692C281 699.18 275.18 705 268 705C260.82 705 255 699.18 255 692Z" stroke="#2DB69E" stroke-width="2"/>
<rect x="268" y="706" width="2" height="630" fill="url(#paint1_linear_147_76)"/>
<path d="M314.564 782.818V800H309.9V787.114H309.799L306.04 789.362V785.402L310.269 782.818H314.564ZM322.765 782.818H328.57L332.564 792.55H332.765L336.759 782.818H342.564V800H338V790.067H337.866L334.04 799.866H331.289L327.463 790H327.329V800H322.765V782.818ZM349.439 782.818V800H344.775V782.818H349.439ZM367.691 789.261H362.959C362.926 788.87 362.836 788.515 362.691 788.196C362.551 787.877 362.355 787.603 362.104 787.374C361.857 787.139 361.558 786.96 361.206 786.837C360.853 786.708 360.454 786.644 360.006 786.644C359.223 786.644 358.56 786.834 358.018 787.214C357.481 787.595 357.073 788.14 356.793 788.85C356.519 789.561 356.382 790.414 356.382 791.409C356.382 792.461 356.522 793.341 356.801 794.052C357.087 794.757 357.498 795.288 358.035 795.646C358.572 795.998 359.218 796.174 359.973 796.174C360.403 796.174 360.789 796.121 361.13 796.015C361.472 795.903 361.768 795.744 362.02 795.537C362.271 795.33 362.475 795.081 362.632 794.79C362.794 794.494 362.903 794.161 362.959 793.792L367.691 793.825C367.635 794.552 367.431 795.293 367.079 796.049C366.726 796.798 366.226 797.492 365.577 798.129C364.934 798.761 364.137 799.27 363.186 799.656C362.235 800.042 361.13 800.235 359.872 800.235C358.295 800.235 356.88 799.897 355.627 799.22C354.38 798.543 353.392 797.547 352.665 796.233C351.944 794.919 351.583 793.311 351.583 791.409C351.583 789.496 351.952 787.885 352.69 786.577C353.429 785.262 354.424 784.27 355.677 783.598C356.93 782.922 358.328 782.583 359.872 782.583C360.957 782.583 361.955 782.731 362.867 783.028C363.779 783.324 364.578 783.758 365.266 784.328C365.954 784.893 366.508 785.59 366.928 786.417C367.347 787.245 367.601 788.193 367.691 789.261ZM384.002 800H379.338V786.543H377.693C377.151 786.543 376.684 786.619 376.292 786.77C375.901 786.915 375.599 787.144 375.386 787.458C375.179 787.765 375.076 788.165 375.076 788.657C375.076 789.144 375.179 789.538 375.386 789.84C375.599 790.142 375.901 790.363 376.292 790.503C376.684 790.637 377.151 790.704 377.693 790.704H381.183V794.329H376.754C375.451 794.329 374.307 794.113 373.322 793.683C372.338 793.252 371.572 792.614 371.024 791.77C370.481 790.925 370.21 789.888 370.21 788.657C370.21 787.438 370.476 786.392 371.007 785.52C371.538 784.647 372.282 783.979 373.239 783.515C374.201 783.05 375.316 782.818 376.586 782.818H384.002V800ZM373.935 792.114H378.902L374.707 800H369.639L373.935 792.114ZM404.064 796.476L403.863 804.061H399.534V800H398.325V796.476H404.064ZM386.211 800V782.818H390.708V796.409H396.715V782.818H401.279V800H386.211ZM408.59 788.59H412.147C413.596 788.59 414.86 788.822 415.939 789.287C417.024 789.751 417.866 790.405 418.465 791.25C419.069 792.094 419.368 793.087 419.362 794.228C419.368 795.369 419.069 796.373 418.465 797.24C417.866 798.107 417.024 798.784 415.939 799.27C414.86 799.757 413.596 800 412.147 800H405.738V782.818H410.402V796.342H412.147C412.712 796.342 413.185 796.25 413.565 796.065C413.951 795.881 414.242 795.626 414.438 795.302C414.639 794.977 414.737 794.608 414.731 794.194C414.737 793.607 414.519 793.121 414.077 792.735C413.635 792.343 412.992 792.147 412.147 792.147H408.59V788.59Z" fill="#2DB69E"/>
<path d="M306.86 834V823.4H311.78C313.02 823.4 313.993 823.64 314.7 824.12C315.42 824.587 315.78 825.253 315.78 826.12C315.78 826.987 315.44 827.66 314.76 828.14C314.093 828.607 313.207 828.84 312.1 828.84L312.4 828.32C313.667 828.32 314.607 828.553 315.22 829.02C315.833 829.487 316.14 830.173 316.14 831.08C316.14 832 315.793 832.72 315.1 833.24C314.42 833.747 313.373 834 311.96 834H306.86ZM308.74 832.52H311.82C312.62 832.52 313.22 832.4 313.62 832.16C314.02 831.907 314.22 831.507 314.22 830.96C314.22 830.4 314.033 829.993 313.66 829.74C313.3 829.473 312.727 829.34 311.94 829.34H308.74V832.52ZM308.74 827.96H311.62C312.353 827.96 312.907 827.827 313.28 827.56C313.667 827.28 313.86 826.893 313.86 826.4C313.86 825.893 313.667 825.513 313.28 825.26C312.907 825.007 312.353 824.88 311.62 824.88H308.74V827.96ZM319.145 834V823.4H321.065V831.12L327.565 823.4H329.305V834H327.385V826.28L320.905 834H319.145ZM333.032 834V823.4H337.952C339.192 823.4 340.165 823.64 340.872 824.12C341.592 824.587 341.952 825.253 341.952 826.12C341.952 826.987 341.612 827.66 340.932 828.14C340.265 828.607 339.379 828.84 338.272 828.84L338.572 828.32C339.839 828.32 340.779 828.553 341.392 829.02C342.005 829.487 342.312 830.173 342.312 831.08C342.312 832 341.965 832.72 341.272 833.24C340.592 833.747 339.545 834 338.132 834H333.032ZM334.912 832.52H337.992C338.792 832.52 339.392 832.4 339.792 832.16C340.192 831.907 340.392 831.507 340.392 830.96C340.392 830.4 340.205 829.993 339.832 829.74C339.472 829.473 338.899 829.34 338.112 829.34H334.912V832.52ZM334.912 827.96H337.792C338.525 827.96 339.079 827.827 339.452 827.56C339.839 827.28 340.032 826.893 340.032 826.4C340.032 825.893 339.839 825.513 339.452 825.26C339.079 825.007 338.525 824.88 337.792 824.88H334.912V827.96ZM351.997 829.66C351.437 829.927 350.857 830.14 350.257 830.3C349.67 830.447 349.064 830.52 348.437 830.52C347.157 830.52 346.144 830.22 345.397 829.62C344.664 829.02 344.297 828.093 344.297 826.84V823.4H346.217V826.72C346.217 827.48 346.45 828.04 346.917 828.4C347.397 828.76 348.037 828.94 348.837 828.94C349.344 828.94 349.864 828.873 350.397 828.74C350.944 828.607 351.477 828.42 351.997 828.18V829.66ZM351.857 834V823.4H353.777V834H351.857ZM362.225 834.12C361.091 834.12 360.091 833.887 359.225 833.42C358.371 832.953 357.705 832.313 357.225 831.5C356.758 830.687 356.525 829.753 356.525 828.7C356.525 827.647 356.751 826.713 357.205 825.9C357.671 825.087 358.305 824.453 359.105 824C359.918 823.533 360.831 823.3 361.845 823.3C362.871 823.3 363.778 823.527 364.565 823.98C365.351 824.433 365.965 825.073 366.405 825.9C366.858 826.713 367.085 827.667 367.085 828.76C367.085 828.84 367.078 828.933 367.065 829.04C367.065 829.147 367.058 829.247 367.045 829.34H358.025V827.96H366.045L365.265 828.44C365.278 827.76 365.138 827.153 364.845 826.62C364.551 826.087 364.145 825.673 363.625 825.38C363.118 825.073 362.525 824.92 361.845 824.92C361.178 824.92 360.585 825.073 360.065 825.38C359.545 825.673 359.138 826.093 358.845 826.64C358.551 827.173 358.405 827.787 358.405 828.48V828.8C358.405 829.507 358.565 830.14 358.885 830.7C359.218 831.247 359.678 831.673 360.265 831.98C360.851 832.287 361.525 832.44 362.285 832.44C362.911 832.44 363.478 832.333 363.985 832.12C364.505 831.907 364.958 831.587 365.345 831.16L366.405 832.4C365.925 832.96 365.325 833.387 364.605 833.68C363.898 833.973 363.105 834.12 362.225 834.12ZM370.063 834V823.4H371.983V827.9H378.023V823.4H379.943V834H378.023V829.56H371.983V834H370.063ZM383.676 834V823.4H385.596V827.9H391.636V823.4H393.556V834H391.636V829.56H385.596V834H383.676ZM404.07 834V830.28L404.37 830.64H400.99C399.576 830.64 398.47 830.34 397.67 829.74C396.883 829.14 396.49 828.267 396.49 827.12C396.49 825.893 396.91 824.967 397.75 824.34C398.603 823.713 399.736 823.4 401.15 823.4H405.79V834H404.07ZM396.39 834L399.27 829.94H401.25L398.45 834H396.39ZM404.07 829.68V824.54L404.37 825.08H401.21C400.33 825.08 399.65 825.247 399.17 825.58C398.69 825.9 398.45 826.433 398.45 827.18C398.45 828.567 399.343 829.26 401.13 829.26H404.37L404.07 829.68ZM311.4 864.12C310.333 864.12 309.387 863.887 308.56 863.42C307.733 862.953 307.08 862.313 306.6 861.5C306.12 860.673 305.88 859.74 305.88 858.7C305.88 857.647 306.12 856.713 306.6 855.9C307.08 855.087 307.733 854.453 308.56 854C309.387 853.533 310.333 853.3 311.4 853.3C312.453 853.3 313.393 853.533 314.22 854C315.06 854.453 315.713 855.087 316.18 855.9C316.66 856.7 316.9 857.633 316.9 858.7C316.9 859.753 316.66 860.687 316.18 861.5C315.713 862.313 315.06 862.953 314.22 863.42C313.393 863.887 312.453 864.12 311.4 864.12ZM311.4 862.44C312.08 862.44 312.687 862.287 313.22 861.98C313.767 861.673 314.193 861.24 314.5 860.68C314.807 860.107 314.96 859.447 314.96 858.7C314.96 857.94 314.807 857.287 314.5 856.74C314.193 856.18 313.767 855.747 313.22 855.44C312.687 855.133 312.08 854.98 311.4 854.98C310.72 854.98 310.113 855.133 309.58 855.44C309.047 855.747 308.62 856.18 308.3 856.74C307.98 857.287 307.82 857.94 307.82 858.7C307.82 859.447 307.98 860.107 308.3 860.68C308.62 861.24 309.047 861.673 309.58 861.98C310.113 862.287 310.72 862.44 311.4 862.44ZM324.293 864.12C323.213 864.12 322.246 863.887 321.393 863.42C320.553 862.953 319.893 862.313 319.413 861.5C318.933 860.687 318.693 859.753 318.693 858.7C318.693 857.647 318.933 856.713 319.413 855.9C319.893 855.087 320.553 854.453 321.393 854C322.246 853.533 323.213 853.3 324.293 853.3C325.253 853.3 326.106 853.493 326.853 853.88C327.613 854.253 328.199 854.813 328.613 855.56L327.153 856.5C326.806 855.98 326.379 855.6 325.873 855.36C325.379 855.107 324.846 854.98 324.273 854.98C323.579 854.98 322.959 855.133 322.413 855.44C321.866 855.747 321.433 856.18 321.113 856.74C320.793 857.287 320.633 857.94 320.633 858.7C320.633 859.46 320.793 860.12 321.113 860.68C321.433 861.24 321.866 861.673 322.413 861.98C322.959 862.287 323.579 862.44 324.273 862.44C324.846 862.44 325.379 862.32 325.873 862.08C326.379 861.827 326.806 861.44 327.153 860.92L328.613 861.84C328.199 862.573 327.613 863.14 326.853 863.54C326.106 863.927 325.253 864.12 324.293 864.12ZM331.098 864V853.4H333.018V857.9H339.058V853.4H340.978V864H339.058V859.56H333.018V864H331.098ZM349.252 864.12C348.185 864.12 347.238 863.887 346.412 863.42C345.585 862.953 344.932 862.313 344.452 861.5C343.972 860.673 343.732 859.74 343.732 858.7C343.732 857.647 343.972 856.713 344.452 855.9C344.932 855.087 345.585 854.453 346.412 854C347.238 853.533 348.185 853.3 349.252 853.3C350.305 853.3 351.245 853.533 352.072 854C352.912 854.453 353.565 855.087 354.032 855.9C354.512 856.7 354.752 857.633 354.752 858.7C354.752 859.753 354.512 860.687 354.032 861.5C353.565 862.313 352.912 862.953 352.072 863.42C351.245 863.887 350.305 864.12 349.252 864.12ZM349.252 862.44C349.932 862.44 350.538 862.287 351.072 861.98C351.618 861.673 352.045 861.24 352.352 860.68C352.658 860.107 352.812 859.447 352.812 858.7C352.812 857.94 352.658 857.287 352.352 856.74C352.045 856.18 351.618 855.747 351.072 855.44C350.538 855.133 349.932 854.98 349.252 854.98C348.572 854.98 347.965 855.133 347.432 855.44C346.898 855.747 346.472 856.18 346.152 856.74C345.832 857.287 345.672 857.94 345.672 858.7C345.672 859.447 345.832 860.107 346.152 860.68C346.472 861.24 346.898 861.673 347.432 861.98C347.965 862.287 348.572 862.44 349.252 862.44ZM357.524 864V853.4H362.444C363.684 853.4 364.657 853.64 365.364 854.12C366.084 854.587 366.444 855.253 366.444 856.12C366.444 856.987 366.104 857.66 365.424 858.14C364.757 858.607 363.871 858.84 362.764 858.84L363.064 858.32C364.331 858.32 365.271 858.553 365.884 859.02C366.497 859.487 366.804 860.173 366.804 861.08C366.804 862 366.457 862.72 365.764 863.24C365.084 863.747 364.037 864 362.624 864H357.524ZM359.404 862.52H362.484C363.284 862.52 363.884 862.4 364.284 862.16C364.684 861.907 364.884 861.507 364.884 860.96C364.884 860.4 364.697 859.993 364.324 859.74C363.964 859.473 363.391 859.34 362.604 859.34H359.404V862.52ZM359.404 857.96H362.284C363.017 857.96 363.571 857.827 363.944 857.56C364.331 857.28 364.524 856.893 364.524 856.4C364.524 855.893 364.331 855.513 363.944 855.26C363.571 855.007 363.017 854.88 362.284 854.88H359.404V857.96ZM308.96 895V885.58L309.44 886.08H305.08V884.4H314.76V886.08H310.42L310.88 885.58V895H308.96ZM322.343 895.12C321.463 895.12 320.657 894.92 319.923 894.52C319.203 894.107 318.623 893.5 318.183 892.7C317.757 891.9 317.543 890.9 317.543 889.7C317.543 888.5 317.75 887.5 318.163 886.7C318.59 885.9 319.163 885.3 319.883 884.9C320.617 884.5 321.437 884.3 322.343 884.3C323.383 884.3 324.303 884.527 325.103 884.98C325.903 885.433 326.537 886.067 327.003 886.88C327.47 887.68 327.703 888.62 327.703 889.7C327.703 890.78 327.47 891.727 327.003 892.54C326.537 893.353 325.903 893.987 325.103 894.44C324.303 894.893 323.383 895.12 322.343 895.12ZM316.723 898.88V884.4H318.563V887.26L318.443 889.72L318.643 892.18V898.88H316.723ZM322.183 893.44C322.863 893.44 323.47 893.287 324.003 892.98C324.55 892.673 324.977 892.24 325.283 891.68C325.603 891.107 325.763 890.447 325.763 889.7C325.763 888.94 325.603 888.287 325.283 887.74C324.977 887.18 324.55 886.747 324.003 886.44C323.47 886.133 322.863 885.98 322.183 885.98C321.517 885.98 320.91 886.133 320.363 886.44C319.83 886.747 319.403 887.18 319.083 887.74C318.777 888.287 318.623 888.94 318.623 889.7C318.623 890.447 318.777 891.107 319.083 891.68C319.403 892.24 319.83 892.673 320.363 892.98C320.91 893.287 321.517 893.44 322.183 893.44ZM335.213 895.12C334.079 895.12 333.079 894.887 332.213 894.42C331.359 893.953 330.693 893.313 330.213 892.5C329.746 891.687 329.513 890.753 329.513 889.7C329.513 888.647 329.739 887.713 330.193 886.9C330.659 886.087 331.293 885.453 332.093 885C332.906 884.533 333.819 884.3 334.833 884.3C335.859 884.3 336.766 884.527 337.553 884.98C338.339 885.433 338.953 886.073 339.393 886.9C339.846 887.713 340.073 888.667 340.073 889.76C340.073 889.84 340.066 889.933 340.053 890.04C340.053 890.147 340.046 890.247 340.033 890.34H331.013V888.96H339.033L338.253 889.44C338.266 888.76 338.126 888.153 337.833 887.62C337.539 887.087 337.133 886.673 336.613 886.38C336.106 886.073 335.513 885.92 334.833 885.92C334.166 885.92 333.573 886.073 333.053 886.38C332.533 886.673 332.126 887.093 331.833 887.64C331.539 888.173 331.393 888.787 331.393 889.48V889.8C331.393 890.507 331.553 891.14 331.873 891.7C332.206 892.247 332.666 892.673 333.253 892.98C333.839 893.287 334.513 893.44 335.273 893.44C335.899 893.44 336.466 893.333 336.973 893.12C337.493 892.907 337.946 892.587 338.333 892.16L339.393 893.4C338.913 893.96 338.313 894.387 337.593 894.68C336.886 894.973 336.093 895.12 335.213 895.12ZM343.051 895V884.4H344.971V892.12L351.471 884.4H353.211V895H351.291V887.28L344.811 895H343.051ZM348.011 883.02C347.038 883.02 346.271 882.787 345.711 882.32C345.165 881.84 344.885 881.153 344.871 880.26H346.171C346.185 880.767 346.351 881.167 346.671 881.46C347.005 881.753 347.445 881.9 347.991 881.9C348.538 881.9 348.978 881.753 349.311 881.46C349.645 881.167 349.818 880.767 349.831 880.26H351.171C351.158 881.153 350.871 881.84 350.311 882.32C349.751 882.787 348.985 883.02 348.011 883.02ZM364.178 894.1V886.08H359.578L359.478 888.12C359.451 888.787 359.405 889.433 359.338 890.06C359.285 890.673 359.191 891.24 359.058 891.76C358.938 892.28 358.758 892.707 358.518 893.04C358.278 893.373 357.958 893.58 357.558 893.66L355.658 893.32C356.071 893.333 356.405 893.2 356.658 892.92C356.911 892.627 357.105 892.227 357.238 891.72C357.385 891.213 357.491 890.64 357.558 890C357.625 889.347 357.678 888.673 357.718 887.98L357.878 884.4H366.098V894.1H364.178ZM355.238 897.46V893.32H367.718V897.46H365.918V895H357.058V897.46H355.238ZM370.219 895V884.4H372.139V892.12L378.639 884.4H380.379V895H378.459V887.28L371.979 895H370.219ZM384.106 895V884.4H386.026V888.9H392.066V884.4H393.986V895H392.066V890.56H386.026V895H384.106ZM397.719 895V884.4H405.519V886.08H399.179L399.639 885.64V895H397.719ZM408.025 899C407.518 899 407.025 898.913 406.545 898.74C406.065 898.58 405.652 898.34 405.305 898.02L406.125 896.58C406.392 896.833 406.685 897.027 407.005 897.16C407.325 897.293 407.665 897.36 408.025 897.36C408.492 897.36 408.878 897.24 409.185 897C409.492 896.76 409.778 896.333 410.045 895.72L410.705 894.26L410.905 894.02L415.065 884.4H416.945L411.805 896.06C411.498 896.807 411.152 897.393 410.765 897.82C410.392 898.247 409.978 898.547 409.525 898.72C409.072 898.907 408.572 899 408.025 899ZM410.545 895.34L405.705 884.4H407.705L411.825 893.84L410.545 895.34Z" fill="white"/>
<rect x="653" y="1021" width="1" height="549" transform="rotate(180 653 1021)" fill="#2DB69E"/>
<path d="M674.132 649V645.671L680.491 640.411C680.912 640.061 681.273 639.734 681.573 639.429C681.878 639.118 682.111 638.799 682.272 638.471C682.438 638.144 682.521 637.781 682.521 637.381C682.521 636.943 682.427 636.568 682.239 636.258C682.055 635.947 681.8 635.708 681.473 635.542C681.145 635.37 680.768 635.284 680.341 635.284C679.914 635.284 679.536 635.37 679.209 635.542C678.887 635.714 678.637 635.966 678.46 636.299C678.282 636.632 678.194 637.037 678.194 637.514H673.799C673.799 636.316 674.068 635.284 674.606 634.418C675.145 633.553 675.905 632.887 676.887 632.421C677.869 631.955 679.02 631.722 680.341 631.722C681.706 631.722 682.888 631.941 683.886 632.379C684.891 632.812 685.665 633.422 686.209 634.21C686.758 634.998 687.033 635.922 687.033 636.982C687.033 637.636 686.897 638.288 686.625 638.938C686.353 639.581 685.865 640.294 685.16 641.077C684.455 641.859 683.454 642.791 682.155 643.873L680.557 645.205V645.305H687.216V649H674.132ZM693.92 631.955H699.679L703.641 641.609H703.841L707.803 631.955H713.562V649H709.034V639.146H708.901L705.106 648.867H702.376L698.581 639.079H698.447V649H693.92V631.955ZM720.383 631.955V649H715.755V631.955H720.383ZM738.489 638.347H733.795C733.762 637.958 733.673 637.606 733.529 637.29C733.39 636.973 733.196 636.701 732.946 636.474C732.702 636.241 732.405 636.063 732.056 635.941C731.706 635.814 731.309 635.75 730.865 635.75C730.089 635.75 729.431 635.938 728.893 636.316C728.36 636.693 727.955 637.234 727.678 637.939C727.406 638.643 727.27 639.49 727.27 640.477C727.27 641.52 727.409 642.394 727.686 643.099C727.969 643.798 728.377 644.325 728.91 644.68C729.442 645.03 730.083 645.205 730.832 645.205C731.259 645.205 731.642 645.152 731.981 645.047C732.319 644.936 732.613 644.777 732.863 644.572C733.113 644.367 733.315 644.12 733.471 643.831C733.631 643.537 733.74 643.207 733.795 642.841L738.489 642.874C738.434 643.596 738.231 644.331 737.882 645.08C737.532 645.823 737.036 646.511 736.392 647.144C735.754 647.771 734.963 648.276 734.02 648.659C733.077 649.042 731.981 649.233 730.732 649.233C729.168 649.233 727.764 648.897 726.521 648.226C725.284 647.555 724.304 646.567 723.583 645.263C722.867 643.959 722.509 642.364 722.509 640.477C722.509 638.58 722.875 636.982 723.608 635.683C724.34 634.379 725.328 633.394 726.571 632.729C727.814 632.057 729.201 631.722 730.732 631.722C731.809 631.722 732.799 631.869 733.704 632.163C734.608 632.457 735.402 632.887 736.084 633.453C736.766 634.013 737.316 634.704 737.732 635.525C738.148 636.346 738.401 637.287 738.489 638.347ZM754.671 649H750.044V635.65H748.412C747.874 635.65 747.411 635.725 747.022 635.875C746.634 636.019 746.334 636.246 746.124 636.557C745.918 636.862 745.816 637.259 745.816 637.747C745.816 638.23 745.918 638.621 746.124 638.921C746.334 639.221 746.634 639.44 747.022 639.578C747.411 639.712 747.874 639.778 748.412 639.778H751.875V643.374H747.48C746.187 643.374 745.053 643.16 744.076 642.733C743.1 642.306 742.339 641.673 741.796 640.835C741.257 639.997 740.988 638.968 740.988 637.747C740.988 636.538 741.252 635.5 741.779 634.635C742.306 633.769 743.044 633.106 743.993 632.645C744.947 632.185 746.054 631.955 747.314 631.955H754.671V649ZM744.684 641.176H749.611L745.449 649H740.422L744.684 641.176ZM774.574 645.504L774.374 653.028H770.079V649H768.881V645.504H774.574ZM756.862 649V631.955H761.323V645.438H767.283V631.955H771.81V649H756.862ZM779.064 637.681H782.593C784.03 637.681 785.284 637.911 786.355 638.372C787.431 638.832 788.266 639.481 788.86 640.319C789.459 641.157 789.756 642.142 789.751 643.274C789.756 644.406 789.459 645.402 788.86 646.262C788.266 647.122 787.431 647.793 786.355 648.276C785.284 648.759 784.03 649 782.593 649H776.234V631.955H780.862V645.371H782.593C783.153 645.371 783.622 645.28 783.999 645.097C784.382 644.913 784.671 644.661 784.865 644.339C785.065 644.017 785.162 643.651 785.156 643.241C785.162 642.658 784.945 642.175 784.507 641.792C784.069 641.404 783.431 641.21 782.593 641.21H779.064V637.681Z" fill="#2DB69E"/>
<path d="M674.86 683V672.4H679.78C681.02 672.4 681.993 672.64 682.7 673.12C683.42 673.587 683.78 674.253 683.78 675.12C683.78 675.987 683.44 676.66 682.76 677.14C682.093 677.607 681.207 677.84 680.1 677.84L680.4 677.32C681.667 677.32 682.607 677.553 683.22 678.02C683.833 678.487 684.14 679.173 684.14 680.08C684.14 681 683.793 681.72 683.1 682.24C682.42 682.747 681.373 683 679.96 683H674.86ZM676.74 681.52H679.82C680.62 681.52 681.22 681.4 681.62 681.16C682.02 680.907 682.22 680.507 682.22 679.96C682.22 679.4 682.033 678.993 681.66 678.74C681.3 678.473 680.727 678.34 679.94 678.34H676.74V681.52ZM676.74 676.96H679.62C680.353 676.96 680.907 676.827 681.28 676.56C681.667 676.28 681.86 675.893 681.86 675.4C681.86 674.893 681.667 674.513 681.28 674.26C680.907 674.007 680.353 673.88 679.62 673.88H676.74V676.96ZM687.145 683V672.4H689.065V680.12L695.565 672.4H697.305V683H695.385V675.28L688.905 683H687.145ZM701.032 683V672.4H705.952C707.192 672.4 708.165 672.64 708.872 673.12C709.592 673.587 709.952 674.253 709.952 675.12C709.952 675.987 709.612 676.66 708.932 677.14C708.265 677.607 707.379 677.84 706.272 677.84L706.572 677.32C707.839 677.32 708.779 677.553 709.392 678.02C710.005 678.487 710.312 679.173 710.312 680.08C710.312 681 709.965 681.72 709.272 682.24C708.592 682.747 707.545 683 706.132 683H701.032ZM702.912 681.52H705.992C706.792 681.52 707.392 681.4 707.792 681.16C708.192 680.907 708.392 680.507 708.392 679.96C708.392 679.4 708.205 678.993 707.832 678.74C707.472 678.473 706.899 678.34 706.112 678.34H702.912V681.52ZM702.912 676.96H705.792C706.525 676.96 707.079 676.827 707.452 676.56C707.839 676.28 708.032 675.893 708.032 675.4C708.032 674.893 707.839 674.513 707.452 674.26C707.079 674.007 706.525 673.88 705.792 673.88H702.912V676.96ZM719.997 678.66C719.437 678.927 718.857 679.14 718.257 679.3C717.67 679.447 717.064 679.52 716.437 679.52C715.157 679.52 714.144 679.22 713.397 678.62C712.664 678.02 712.297 677.093 712.297 675.84V672.4H714.217V675.72C714.217 676.48 714.45 677.04 714.917 677.4C715.397 677.76 716.037 677.94 716.837 677.94C717.344 677.94 717.864 677.873 718.397 677.74C718.944 677.607 719.477 677.42 719.997 677.18V678.66ZM719.857 683V672.4H721.777V683H719.857ZM730.225 683.12C729.091 683.12 728.091 682.887 727.225 682.42C726.371 681.953 725.705 681.313 725.225 680.5C724.758 679.687 724.525 678.753 724.525 677.7C724.525 676.647 724.751 675.713 725.205 674.9C725.671 674.087 726.305 673.453 727.105 673C727.918 672.533 728.831 672.3 729.845 672.3C730.871 672.3 731.778 672.527 732.565 672.98C733.351 673.433 733.965 674.073 734.405 674.9C734.858 675.713 735.085 676.667 735.085 677.76C735.085 677.84 735.078 677.933 735.065 678.04C735.065 678.147 735.058 678.247 735.045 678.34H726.025V676.96H734.045L733.265 677.44C733.278 676.76 733.138 676.153 732.845 675.62C732.551 675.087 732.145 674.673 731.625 674.38C731.118 674.073 730.525 673.92 729.845 673.92C729.178 673.92 728.585 674.073 728.065 674.38C727.545 674.673 727.138 675.093 726.845 675.64C726.551 676.173 726.405 676.787 726.405 677.48V677.8C726.405 678.507 726.565 679.14 726.885 679.7C727.218 680.247 727.678 680.673 728.265 680.98C728.851 681.287 729.525 681.44 730.285 681.44C730.911 681.44 731.478 681.333 731.985 681.12C732.505 680.907 732.958 680.587 733.345 680.16L734.405 681.4C733.925 681.96 733.325 682.387 732.605 682.68C731.898 682.973 731.105 683.12 730.225 683.12ZM738.063 683V672.4H739.983V676.9H746.023V672.4H747.943V683H746.023V678.56H739.983V683H738.063ZM751.676 683V672.4H753.596V676.9H759.636V672.4H761.556V683H759.636V678.56H753.596V683H751.676ZM772.07 683V679.28L772.37 679.64H768.99C767.576 679.64 766.47 679.34 765.67 678.74C764.883 678.14 764.49 677.267 764.49 676.12C764.49 674.893 764.91 673.967 765.75 673.34C766.603 672.713 767.736 672.4 769.15 672.4H773.79V683H772.07ZM764.39 683L767.27 678.94H769.25L766.45 683H764.39ZM772.07 678.68V673.54L772.37 674.08H769.21C768.33 674.08 767.65 674.247 767.17 674.58C766.69 674.9 766.45 675.433 766.45 676.18C766.45 677.567 767.343 678.26 769.13 678.26H772.37L772.07 678.68ZM681.36 713V710.76L681.26 710.34V706.52C681.26 705.707 681.02 705.08 680.54 704.64C680.073 704.187 679.367 703.96 678.42 703.96C677.793 703.96 677.18 704.067 676.58 704.28C675.98 704.48 675.473 704.753 675.06 705.1L674.26 703.66C674.807 703.22 675.46 702.887 676.22 702.66C676.993 702.42 677.8 702.3 678.64 702.3C680.093 702.3 681.213 702.653 682 703.36C682.787 704.067 683.18 705.147 683.18 706.6V713H681.36ZM677.88 713.12C677.093 713.12 676.4 712.987 675.8 712.72C675.213 712.453 674.76 712.087 674.44 711.62C674.12 711.14 673.96 710.6 673.96 710C673.96 709.427 674.093 708.907 674.36 708.44C674.64 707.973 675.087 707.6 675.7 707.32C676.327 707.04 677.167 706.9 678.22 706.9H681.58V708.28H678.3C677.34 708.28 676.693 708.44 676.36 708.76C676.027 709.08 675.86 709.467 675.86 709.92C675.86 710.44 676.067 710.86 676.48 711.18C676.893 711.487 677.467 711.64 678.2 711.64C678.92 711.64 679.547 711.48 680.08 711.16C680.627 710.84 681.02 710.373 681.26 709.76L681.64 711.08C681.387 711.707 680.94 712.207 680.3 712.58C679.66 712.94 678.853 713.12 677.88 713.12ZM684.877 712.98L684.997 711.36C685.091 711.373 685.177 711.387 685.257 711.4C685.337 711.413 685.411 711.42 685.477 711.42C685.904 711.42 686.237 711.273 686.477 710.98C686.731 710.687 686.917 710.3 687.037 709.82C687.157 709.327 687.244 708.773 687.297 708.16C687.351 707.547 687.391 706.933 687.417 706.32L687.597 702.4H695.737V713H693.817V703.52L694.277 704.08H688.837L689.277 703.5L689.137 706.44C689.097 707.373 689.024 708.247 688.917 709.06C688.811 709.873 688.644 710.587 688.417 711.2C688.204 711.813 687.904 712.293 687.517 712.64C687.144 712.987 686.657 713.16 686.057 713.16C685.884 713.16 685.697 713.14 685.497 713.1C685.311 713.073 685.104 713.033 684.877 712.98ZM699.45 713V702.4H707.25V704.08H700.91L701.37 703.64V713H699.45ZM713.287 713.12C712.22 713.12 711.273 712.887 710.447 712.42C709.62 711.953 708.967 711.313 708.487 710.5C708.007 709.673 707.767 708.74 707.767 707.7C707.767 706.647 708.007 705.713 708.487 704.9C708.967 704.087 709.62 703.453 710.447 703C711.273 702.533 712.22 702.3 713.287 702.3C714.34 702.3 715.28 702.533 716.107 703C716.947 703.453 717.6 704.087 718.067 704.9C718.547 705.7 718.787 706.633 718.787 707.7C718.787 708.753 718.547 709.687 718.067 710.5C717.6 711.313 716.947 711.953 716.107 712.42C715.28 712.887 714.34 713.12 713.287 713.12ZM713.287 711.44C713.967 711.44 714.573 711.287 715.107 710.98C715.653 710.673 716.08 710.24 716.387 709.68C716.693 709.107 716.847 708.447 716.847 707.7C716.847 706.94 716.693 706.287 716.387 705.74C716.08 705.18 715.653 704.747 715.107 704.44C714.573 704.133 713.967 703.98 713.287 703.98C712.607 703.98 712 704.133 711.467 704.44C710.933 704.747 710.507 705.18 710.187 705.74C709.867 706.287 709.707 706.94 709.707 707.7C709.707 708.447 709.867 709.107 710.187 709.68C710.507 710.24 710.933 710.673 711.467 710.98C712 711.287 712.607 711.44 713.287 711.44ZM727.179 713.12C726.299 713.12 725.493 712.92 724.759 712.52C724.039 712.107 723.459 711.5 723.019 710.7C722.593 709.9 722.379 708.9 722.379 707.7C722.379 706.5 722.586 705.5 722.999 704.7C723.426 703.9 723.999 703.3 724.719 702.9C725.453 702.5 726.273 702.3 727.179 702.3C728.219 702.3 729.139 702.527 729.939 702.98C730.739 703.433 731.373 704.067 731.839 704.88C732.306 705.68 732.539 706.62 732.539 707.7C732.539 708.78 732.306 709.727 731.839 710.54C731.373 711.353 730.739 711.987 729.939 712.44C729.139 712.893 728.219 713.12 727.179 713.12ZM721.559 716.88V702.4H723.399V705.26L723.279 707.72L723.479 710.18V716.88H721.559ZM727.019 711.44C727.699 711.44 728.306 711.287 728.839 710.98C729.386 710.673 729.813 710.24 730.119 709.68C730.439 709.107 730.599 708.447 730.599 707.7C730.599 706.94 730.439 706.287 730.119 705.74C729.813 705.18 729.386 704.747 728.839 704.44C728.306 704.133 727.699 703.98 727.019 703.98C726.353 703.98 725.746 704.133 725.199 704.44C724.666 704.747 724.239 705.18 723.919 705.74C723.613 706.287 723.459 706.94 723.459 707.7C723.459 708.447 723.613 709.107 723.919 709.68C724.239 710.24 724.666 710.673 725.199 710.98C725.746 711.287 726.353 711.44 727.019 711.44ZM735.329 713V702.4H737.249V710.12L743.749 702.4H745.489V713H743.569V705.28L737.089 713H735.329ZM751.315 713V703.58L751.795 704.08H747.435V702.4H757.115V704.08H752.775L753.235 703.58V713H751.315ZM759.079 713V702.4H761.059L765.619 710.24H764.819L769.499 702.4H771.299V713H769.559V704.56L769.879 704.74L765.599 711.8H764.759L760.459 704.6L760.839 704.52V713H759.079ZM775.576 717C775.069 717 774.576 716.913 774.096 716.74C773.616 716.58 773.202 716.34 772.856 716.02L773.676 714.58C773.942 714.833 774.236 715.027 774.556 715.16C774.876 715.293 775.216 715.36 775.576 715.36C776.042 715.36 776.429 715.24 776.736 715C777.042 714.76 777.329 714.333 777.596 713.72L778.256 712.26L778.456 712.02L782.616 702.4H784.496L779.356 714.06C779.049 714.807 778.702 715.393 778.316 715.82C777.942 716.247 777.529 716.547 777.076 716.72C776.622 716.907 776.122 717 775.576 717ZM778.096 713.34L773.256 702.4H775.256L779.376 711.84L778.096 713.34ZM682.1 743.1V735.08H677.5L677.4 737.12C677.373 737.787 677.327 738.433 677.26 739.06C677.207 739.673 677.113 740.24 676.98 740.76C676.86 741.28 676.68 741.707 676.44 742.04C676.2 742.373 675.88 742.58 675.48 742.66L673.58 742.32C673.993 742.333 674.327 742.2 674.58 741.92C674.833 741.627 675.027 741.227 675.16 740.72C675.307 740.213 675.413 739.64 675.48 739C675.547 738.347 675.6 737.673 675.64 736.98L675.8 733.4H684.02V743.1H682.1ZM673.16 746.46V742.32H685.64V746.46H683.84V744H674.98V746.46H673.16ZM692.681 744.12C691.615 744.12 690.668 743.887 689.841 743.42C689.015 742.953 688.361 742.313 687.881 741.5C687.401 740.673 687.161 739.74 687.161 738.7C687.161 737.647 687.401 736.713 687.881 735.9C688.361 735.087 689.015 734.453 689.841 734C690.668 733.533 691.615 733.3 692.681 733.3C693.735 733.3 694.675 733.533 695.501 734C696.341 734.453 696.995 735.087 697.461 735.9C697.941 736.7 698.181 737.633 698.181 738.7C698.181 739.753 697.941 740.687 697.461 741.5C696.995 742.313 696.341 742.953 695.501 743.42C694.675 743.887 693.735 744.12 692.681 744.12ZM692.681 742.44C693.361 742.44 693.968 742.287 694.501 741.98C695.048 741.673 695.475 741.24 695.781 740.68C696.088 740.107 696.241 739.447 696.241 738.7C696.241 737.94 696.088 737.287 695.781 736.74C695.475 736.18 695.048 735.747 694.501 735.44C693.968 735.133 693.361 734.98 692.681 734.98C692.001 734.98 691.395 735.133 690.861 735.44C690.328 735.747 689.901 736.18 689.581 736.74C689.261 737.287 689.101 737.94 689.101 738.7C689.101 739.447 689.261 740.107 689.581 740.68C689.901 741.24 690.328 741.673 690.861 741.98C691.395 742.287 692.001 742.44 692.681 742.44ZM705.574 744.12C704.494 744.12 703.527 743.887 702.674 743.42C701.834 742.953 701.174 742.313 700.694 741.5C700.214 740.687 699.974 739.753 699.974 738.7C699.974 737.647 700.214 736.713 700.694 735.9C701.174 735.087 701.834 734.453 702.674 734C703.527 733.533 704.494 733.3 705.574 733.3C706.534 733.3 707.387 733.493 708.134 733.88C708.894 734.253 709.48 734.813 709.894 735.56L708.434 736.5C708.087 735.98 707.66 735.6 707.154 735.36C706.66 735.107 706.127 734.98 705.554 734.98C704.86 734.98 704.24 735.133 703.694 735.44C703.147 735.747 702.714 736.18 702.394 736.74C702.074 737.287 701.914 737.94 701.914 738.7C701.914 739.46 702.074 740.12 702.394 740.68C702.714 741.24 703.147 741.673 703.694 741.98C704.24 742.287 704.86 742.44 705.554 742.44C706.127 742.44 706.66 742.32 707.154 742.08C707.66 741.827 708.087 741.44 708.434 740.92L709.894 741.84C709.48 742.573 708.894 743.14 708.134 743.54C707.387 743.927 706.534 744.12 705.574 744.12ZM714.343 744V734.58L714.823 735.08H710.463V733.4H720.143V735.08H715.803L716.263 734.58V744H714.343ZM728.606 744V741.76L728.506 741.34V737.52C728.506 736.707 728.266 736.08 727.786 735.64C727.319 735.187 726.613 734.96 725.666 734.96C725.039 734.96 724.426 735.067 723.826 735.28C723.226 735.48 722.719 735.753 722.306 736.1L721.506 734.66C722.053 734.22 722.706 733.887 723.466 733.66C724.239 733.42 725.046 733.3 725.886 733.3C727.339 733.3 728.459 733.653 729.246 734.36C730.033 735.067 730.426 736.147 730.426 737.6V744H728.606ZM725.126 744.12C724.339 744.12 723.646 743.987 723.046 743.72C722.459 743.453 722.006 743.087 721.686 742.62C721.366 742.14 721.206 741.6 721.206 741C721.206 740.427 721.339 739.907 721.606 739.44C721.886 738.973 722.333 738.6 722.946 738.32C723.573 738.04 724.413 737.9 725.466 737.9H728.826V739.28H725.546C724.586 739.28 723.939 739.44 723.606 739.76C723.273 740.08 723.106 740.467 723.106 740.92C723.106 741.44 723.313 741.86 723.726 742.18C724.139 742.487 724.713 742.64 725.446 742.64C726.166 742.64 726.793 742.48 727.326 742.16C727.873 741.84 728.266 741.373 728.506 740.76L728.886 742.08C728.633 742.707 728.186 743.207 727.546 743.58C726.906 743.94 726.099 744.12 725.126 744.12ZM733.883 744V733.4H738.803C740.043 733.4 741.017 733.64 741.723 734.12C742.443 734.587 742.803 735.253 742.803 736.12C742.803 736.987 742.463 737.66 741.783 738.14C741.117 738.607 740.23 738.84 739.123 738.84L739.423 738.32C740.69 738.32 741.63 738.553 742.243 739.02C742.857 739.487 743.163 740.173 743.163 741.08C743.163 742 742.817 742.72 742.123 743.24C741.443 743.747 740.397 744 738.983 744H733.883ZM735.763 742.52H738.843C739.643 742.52 740.243 742.4 740.643 742.16C741.043 741.907 741.243 741.507 741.243 740.96C741.243 740.4 741.057 739.993 740.683 739.74C740.323 739.473 739.75 739.34 738.963 739.34H735.763V742.52ZM735.763 737.96H738.643C739.377 737.96 739.93 737.827 740.303 737.56C740.69 737.28 740.883 736.893 740.883 736.4C740.883 735.893 740.69 735.513 740.303 735.26C739.93 735.007 739.377 734.88 738.643 734.88H735.763V737.96ZM753.849 744L749.749 738.84L751.329 737.88L756.109 744H753.849ZM746.169 744V733.4H748.089V744H746.169ZM747.509 739.52V737.88H751.009V739.52H747.509ZM751.489 738.92L749.709 738.68L753.769 733.4H755.829L751.489 738.92ZM758.122 744V733.4H760.042V741.12L766.542 733.4H768.282V744H766.362V736.28L759.882 744H758.122ZM777.38 744V733.4H779.3V742.32H785.1V733.4H787.02V744H777.38ZM786.88 746.46V743.9L787.36 744H785.1V742.32H788.7V746.46H786.88ZM791.188 744V733.4H793.108V744H791.188ZM792.148 731.36C791.775 731.36 791.461 731.24 791.208 731C790.968 730.76 790.848 730.467 790.848 730.12C790.848 729.76 790.968 729.46 791.208 729.22C791.461 728.98 791.775 728.86 792.148 728.86C792.521 728.86 792.828 728.98 793.068 729.22C793.321 729.447 793.448 729.733 793.448 730.08C793.448 730.44 793.328 730.747 793.088 731C792.848 731.24 792.535 731.36 792.148 731.36ZM796.852 744V733.4H798.772V737.9H804.812V733.4H806.732V744H804.812V739.56H798.772V744H796.852ZM810.465 744V733.4H812.385V741.12L818.885 733.4H820.625V744H818.705V736.28L812.225 744H810.465Z" fill="white"/>
<path d="M639 455C639 447.82 644.82 442 652 442C659.18 442 665 447.82 665 455C665 462.18 659.18 468 652 468C644.82 468 639 462.18 639 455Z" stroke="#2DB69E" stroke-width="2"/>
<path d="M1225 280C1225 272.82 1230.82 267 1238 267C1245.18 267 1251 272.82 1251 280C1251 287.18 1245.18 293 1238 293C1230.82 293 1225 287.18 1225 280Z" stroke="#2DB69E" stroke-width="2"/>
<path d="M1231 280C1231 276.134 1234.13 273 1238 273C1241.87 273 1245 276.134 1245 280C1245 283.866 1241.87 287 1238 287C1234.13 287 1231 283.866 1231 280Z" fill="white"/>
<path d="M1524 159C1524 155.134 1527.13 152 1531 152C1534.87 152 1538 155.134 1538 159C1538 162.866 1534.87 166 1531 166C1527.13 166 1524 162.866 1524 159Z" fill="white"/>
<path d="M1261.79 452.233C1260.45 452.233 1259.25 452.003 1258.21 451.542C1257.17 451.076 1256.36 450.435 1255.76 449.62C1255.17 448.804 1254.87 447.866 1254.87 446.806H1259.53C1259.53 447.134 1259.63 447.428 1259.83 447.689C1260.03 447.944 1260.3 448.144 1260.64 448.288C1260.99 448.432 1261.38 448.504 1261.82 448.504C1262.25 448.504 1262.63 448.429 1262.96 448.28C1263.28 448.124 1263.54 447.911 1263.72 447.639C1263.9 447.367 1263.99 447.056 1263.99 446.707C1263.99 446.363 1263.89 446.057 1263.67 445.791C1263.46 445.525 1263.16 445.317 1262.78 445.167C1262.4 445.017 1261.96 444.942 1261.46 444.942H1259.73V441.746H1261.46C1261.92 441.746 1262.32 441.671 1262.67 441.521C1263.03 441.372 1263.3 441.163 1263.5 440.897C1263.7 440.631 1263.79 440.326 1263.79 439.982C1263.79 439.649 1263.71 439.355 1263.55 439.099C1263.38 438.844 1263.15 438.644 1262.85 438.5C1262.55 438.356 1262.21 438.284 1261.82 438.284C1261.4 438.284 1261.02 438.359 1260.69 438.508C1260.36 438.658 1260.11 438.866 1259.92 439.133C1259.73 439.399 1259.63 439.704 1259.63 440.048H1255.2C1255.2 439.005 1255.49 438.084 1256.06 437.285C1256.63 436.486 1257.41 435.859 1258.4 435.404C1259.4 434.949 1260.54 434.722 1261.82 434.722C1263.08 434.722 1264.2 434.935 1265.16 435.362C1266.13 435.79 1266.89 436.378 1267.43 437.127C1267.98 437.87 1268.25 438.722 1268.25 439.682C1268.26 440.636 1267.93 441.419 1267.27 442.029C1266.61 442.639 1265.77 443 1264.75 443.111V443.244C1266.13 443.394 1267.16 443.816 1267.86 444.509C1268.55 445.197 1268.89 446.063 1268.88 447.106C1268.89 448.105 1268.59 448.99 1267.98 449.761C1267.38 450.532 1266.55 451.137 1265.48 451.576C1264.41 452.014 1263.18 452.233 1261.79 452.233ZM1275.58 434.955H1281.34L1285.3 444.609H1285.5L1289.47 434.955H1295.23V452H1290.7V442.146H1290.56L1286.77 451.867H1284.04L1280.24 442.079H1280.11V452H1275.58V434.955ZM1302.05 434.955V452H1297.42V434.955H1302.05ZM1320.15 441.347H1315.46C1315.43 440.958 1315.34 440.606 1315.19 440.29C1315.05 439.973 1314.86 439.701 1314.61 439.474C1314.37 439.241 1314.07 439.063 1313.72 438.941C1313.37 438.814 1312.97 438.75 1312.53 438.75C1311.75 438.75 1311.09 438.938 1310.56 439.316C1310.02 439.693 1309.62 440.234 1309.34 440.939C1309.07 441.643 1308.93 442.49 1308.93 443.477C1308.93 444.52 1309.07 445.394 1309.35 446.099C1309.63 446.798 1310.04 447.325 1310.57 447.68C1311.11 448.03 1311.75 448.205 1312.5 448.205C1312.92 448.205 1313.31 448.152 1313.64 448.047C1313.98 447.936 1314.28 447.777 1314.53 447.572C1314.78 447.367 1314.98 447.12 1315.13 446.831C1315.3 446.537 1315.4 446.207 1315.46 445.841L1320.15 445.874C1320.1 446.596 1319.9 447.331 1319.55 448.08C1319.2 448.823 1318.7 449.511 1318.06 450.144C1317.42 450.771 1316.63 451.276 1315.68 451.659C1314.74 452.042 1313.64 452.233 1312.4 452.233C1310.83 452.233 1309.43 451.897 1308.18 451.226C1306.95 450.555 1305.97 449.567 1305.25 448.263C1304.53 446.959 1304.17 445.364 1304.17 443.477C1304.17 441.58 1304.54 439.982 1305.27 438.683C1306 437.379 1306.99 436.394 1308.23 435.729C1309.48 435.057 1310.86 434.722 1312.4 434.722C1313.47 434.722 1314.46 434.869 1315.37 435.163C1316.27 435.457 1317.07 435.887 1317.75 436.453C1318.43 437.013 1318.98 437.704 1319.4 438.525C1319.81 439.346 1320.06 440.287 1320.15 441.347ZM1336.34 452H1331.71V438.65H1330.08C1329.54 438.65 1329.07 438.725 1328.69 438.875C1328.3 439.019 1328 439.246 1327.79 439.557C1327.58 439.862 1327.48 440.259 1327.48 440.747C1327.48 441.23 1327.58 441.621 1327.79 441.921C1328 442.221 1328.3 442.44 1328.69 442.578C1329.07 442.712 1329.54 442.778 1330.08 442.778H1333.54V446.374H1329.14C1327.85 446.374 1326.72 446.16 1325.74 445.733C1324.76 445.306 1324 444.673 1323.46 443.835C1322.92 442.997 1322.65 441.968 1322.65 440.747C1322.65 439.538 1322.92 438.5 1323.44 437.635C1323.97 436.769 1324.71 436.106 1325.66 435.645C1326.61 435.185 1327.72 434.955 1328.98 434.955H1336.34V452ZM1326.35 444.176H1331.27L1327.11 452H1322.09L1326.35 444.176ZM1356.24 448.504L1356.04 456.028H1351.74V452H1350.54V448.504H1356.24ZM1338.53 452V434.955H1342.99V448.438H1348.95V434.955H1353.47V452H1338.53ZM1360.73 440.681H1364.26C1365.69 440.681 1366.95 440.911 1368.02 441.372C1369.09 441.832 1369.93 442.481 1370.52 443.319C1371.12 444.157 1371.42 445.142 1371.41 446.274C1371.42 447.406 1371.12 448.402 1370.52 449.262C1369.93 450.122 1369.09 450.793 1368.02 451.276C1366.95 451.759 1365.69 452 1364.26 452H1357.9V434.955H1362.53V448.371H1364.26C1364.82 448.371 1365.29 448.28 1365.66 448.097C1366.05 447.913 1366.33 447.661 1366.53 447.339C1366.73 447.017 1366.83 446.651 1366.82 446.241C1366.83 445.658 1366.61 445.175 1366.17 444.792C1365.73 444.404 1365.09 444.21 1364.26 444.21H1360.73V440.681Z" fill="#2DB69E"/>
<path d="M1545.97 305.337V301.741L1552.82 290.955H1556.09V295.749H1554.22L1550.53 301.608V301.741H1560.65V305.337H1545.97ZM1554.26 308V304.238L1554.36 302.673V290.955H1558.68V308H1554.26ZM1567.22 290.955H1572.98L1576.95 300.609H1577.15L1581.11 290.955H1586.87V308H1582.34V298.146H1582.21L1578.41 307.867H1575.68L1571.89 298.079H1571.75V308H1567.22V290.955ZM1593.69 290.955V308H1589.06V290.955H1593.69ZM1611.79 297.347H1607.1C1607.07 296.958 1606.98 296.606 1606.83 296.29C1606.69 295.973 1606.5 295.701 1606.25 295.474C1606.01 295.241 1605.71 295.063 1605.36 294.941C1605.01 294.814 1604.61 294.75 1604.17 294.75C1603.39 294.75 1602.74 294.938 1602.2 295.316C1601.66 295.693 1601.26 296.234 1600.98 296.939C1600.71 297.643 1600.57 298.49 1600.57 299.477C1600.57 300.52 1600.71 301.394 1600.99 302.099C1601.27 302.798 1601.68 303.325 1602.21 303.68C1602.75 304.03 1603.39 304.205 1604.14 304.205C1604.56 304.205 1604.95 304.152 1605.29 304.047C1605.62 303.936 1605.92 303.777 1606.17 303.572C1606.42 303.367 1606.62 303.12 1606.78 302.831C1606.94 302.537 1607.04 302.207 1607.1 301.841L1611.79 301.874C1611.74 302.596 1611.54 303.331 1611.19 304.08C1610.84 304.823 1610.34 305.511 1609.7 306.144C1609.06 306.771 1608.27 307.276 1607.32 307.659C1606.38 308.042 1605.29 308.233 1604.04 308.233C1602.47 308.233 1601.07 307.897 1599.83 307.226C1598.59 306.555 1597.61 305.567 1596.89 304.263C1596.17 302.959 1595.81 301.364 1595.81 299.477C1595.81 297.58 1596.18 295.982 1596.91 294.683C1597.64 293.379 1598.63 292.394 1599.88 291.729C1601.12 291.057 1602.51 290.722 1604.04 290.722C1605.11 290.722 1606.1 290.869 1607.01 291.163C1607.91 291.457 1608.71 291.887 1609.39 292.453C1610.07 293.013 1610.62 293.704 1611.04 294.525C1611.45 295.346 1611.71 296.287 1611.79 297.347ZM1627.98 308H1623.35V294.65H1621.72C1621.18 294.65 1620.72 294.725 1620.33 294.875C1619.94 295.019 1619.64 295.246 1619.43 295.557C1619.22 295.862 1619.12 296.259 1619.12 296.747C1619.12 297.23 1619.22 297.621 1619.43 297.921C1619.64 298.221 1619.94 298.44 1620.33 298.578C1620.72 298.712 1621.18 298.778 1621.72 298.778H1625.18V302.374H1620.78C1619.49 302.374 1618.36 302.16 1617.38 301.733C1616.4 301.306 1615.64 300.673 1615.1 299.835C1614.56 298.997 1614.29 297.968 1614.29 296.747C1614.29 295.538 1614.56 294.5 1615.08 293.635C1615.61 292.769 1616.35 292.106 1617.3 291.645C1618.25 291.185 1619.36 290.955 1620.62 290.955H1627.98V308ZM1617.99 300.176H1622.92L1618.75 308H1613.73L1617.99 300.176ZM1647.88 304.504L1647.68 312.028H1643.38V308H1642.19V304.504H1647.88ZM1630.17 308V290.955H1634.63V304.438H1640.59V290.955H1645.11V308H1630.17ZM1652.37 296.681H1655.9C1657.33 296.681 1658.59 296.911 1659.66 297.372C1660.74 297.832 1661.57 298.481 1662.16 299.319C1662.76 300.157 1663.06 301.142 1663.06 302.274C1663.06 303.406 1662.76 304.402 1662.16 305.262C1661.57 306.122 1660.74 306.793 1659.66 307.276C1658.59 307.759 1657.33 308 1655.9 308H1649.54V290.955H1654.17V304.371H1655.9C1656.46 304.371 1656.93 304.28 1657.3 304.097C1657.69 303.913 1657.98 303.661 1658.17 303.339C1658.37 303.017 1658.47 302.651 1658.46 302.241C1658.47 301.658 1658.25 301.175 1657.81 300.792C1657.37 300.404 1656.74 300.21 1655.9 300.21H1652.37V296.681Z" fill="#2DB69E"/>
<path d="M1253.86 484V473.4H1258.78C1260.02 473.4 1260.99 473.64 1261.7 474.12C1262.42 474.587 1262.78 475.253 1262.78 476.12C1262.78 476.987 1262.44 477.66 1261.76 478.14C1261.09 478.607 1260.21 478.84 1259.1 478.84L1259.4 478.32C1260.67 478.32 1261.61 478.553 1262.22 479.02C1262.83 479.487 1263.14 480.173 1263.14 481.08C1263.14 482 1262.79 482.72 1262.1 483.24C1261.42 483.747 1260.37 484 1258.96 484H1253.86ZM1255.74 482.52H1258.82C1259.62 482.52 1260.22 482.4 1260.62 482.16C1261.02 481.907 1261.22 481.507 1261.22 480.96C1261.22 480.4 1261.03 479.993 1260.66 479.74C1260.3 479.473 1259.73 479.34 1258.94 479.34H1255.74V482.52ZM1255.74 477.96H1258.62C1259.35 477.96 1259.91 477.827 1260.28 477.56C1260.67 477.28 1260.86 476.893 1260.86 476.4C1260.86 475.893 1260.67 475.513 1260.28 475.26C1259.91 475.007 1259.35 474.88 1258.62 474.88H1255.74V477.96ZM1266.15 484V473.4H1268.07V481.12L1274.57 473.4H1276.31V484H1274.39V476.28L1267.91 484H1266.15ZM1280.03 484V473.4H1284.95C1286.19 473.4 1287.17 473.64 1287.87 474.12C1288.59 474.587 1288.95 475.253 1288.95 476.12C1288.95 476.987 1288.61 477.66 1287.93 478.14C1287.27 478.607 1286.38 478.84 1285.27 478.84L1285.57 478.32C1286.84 478.32 1287.78 478.553 1288.39 479.02C1289.01 479.487 1289.31 480.173 1289.31 481.08C1289.31 482 1288.97 482.72 1288.27 483.24C1287.59 483.747 1286.55 484 1285.13 484H1280.03ZM1281.91 482.52H1284.99C1285.79 482.52 1286.39 482.4 1286.79 482.16C1287.19 481.907 1287.39 481.507 1287.39 480.96C1287.39 480.4 1287.21 479.993 1286.83 479.74C1286.47 479.473 1285.9 479.34 1285.11 479.34H1281.91V482.52ZM1281.91 477.96H1284.79C1285.53 477.96 1286.08 477.827 1286.45 477.56C1286.84 477.28 1287.03 476.893 1287.03 476.4C1287.03 475.893 1286.84 475.513 1286.45 475.26C1286.08 475.007 1285.53 474.88 1284.79 474.88H1281.91V477.96ZM1299 479.66C1298.44 479.927 1297.86 480.14 1297.26 480.3C1296.67 480.447 1296.06 480.52 1295.44 480.52C1294.16 480.52 1293.14 480.22 1292.4 479.62C1291.66 479.02 1291.3 478.093 1291.3 476.84V473.4H1293.22V476.72C1293.22 477.48 1293.45 478.04 1293.92 478.4C1294.4 478.76 1295.04 478.94 1295.84 478.94C1296.34 478.94 1296.86 478.873 1297.4 478.74C1297.94 478.607 1298.48 478.42 1299 478.18V479.66ZM1298.86 484V473.4H1300.78V484H1298.86ZM1309.22 484.12C1308.09 484.12 1307.09 483.887 1306.22 483.42C1305.37 482.953 1304.7 482.313 1304.22 481.5C1303.76 480.687 1303.52 479.753 1303.52 478.7C1303.52 477.647 1303.75 476.713 1304.2 475.9C1304.67 475.087 1305.3 474.453 1306.1 474C1306.92 473.533 1307.83 473.3 1308.84 473.3C1309.87 473.3 1310.78 473.527 1311.56 473.98C1312.35 474.433 1312.96 475.073 1313.4 475.9C1313.86 476.713 1314.08 477.667 1314.08 478.76C1314.08 478.84 1314.08 478.933 1314.06 479.04C1314.06 479.147 1314.06 479.247 1314.04 479.34H1305.02V477.96H1313.04L1312.26 478.44C1312.28 477.76 1312.14 477.153 1311.84 476.62C1311.55 476.087 1311.14 475.673 1310.62 475.38C1310.12 475.073 1309.52 474.92 1308.84 474.92C1308.18 474.92 1307.58 475.073 1307.06 475.38C1306.54 475.673 1306.14 476.093 1305.84 476.64C1305.55 477.173 1305.4 477.787 1305.4 478.48V478.8C1305.4 479.507 1305.56 480.14 1305.88 480.7C1306.22 481.247 1306.68 481.673 1307.26 481.98C1307.85 482.287 1308.52 482.44 1309.28 482.44C1309.91 482.44 1310.48 482.333 1310.98 482.12C1311.5 481.907 1311.96 481.587 1312.34 481.16L1313.4 482.4C1312.92 482.96 1312.32 483.387 1311.6 483.68C1310.9 483.973 1310.1 484.12 1309.22 484.12ZM1317.06 484V473.4H1318.98V477.9H1325.02V473.4H1326.94V484H1325.02V479.56H1318.98V484H1317.06ZM1330.68 484V473.4H1332.6V477.9H1338.64V473.4H1340.56V484H1338.64V479.56H1332.6V484H1330.68ZM1351.07 484V480.28L1351.37 480.64H1347.99C1346.58 480.64 1345.47 480.34 1344.67 479.74C1343.88 479.14 1343.49 478.267 1343.49 477.12C1343.49 475.893 1343.91 474.967 1344.75 474.34C1345.6 473.713 1346.74 473.4 1348.15 473.4H1352.79V484H1351.07ZM1343.39 484L1346.27 479.94H1348.25L1345.45 484H1343.39ZM1351.07 479.68V474.54L1351.37 475.08H1348.21C1347.33 475.08 1346.65 475.247 1346.17 475.58C1345.69 475.9 1345.45 476.433 1345.45 477.18C1345.45 478.567 1346.34 479.26 1348.13 479.26H1351.37L1351.07 479.68ZM1253.86 514V503.4H1255.84L1260.4 511.24H1259.6L1264.28 503.4H1266.08V514H1264.34V505.56L1264.66 505.74L1260.38 512.8H1259.54L1255.24 505.6L1255.62 505.52V514H1253.86ZM1276.32 514V511.76L1276.22 511.34V507.52C1276.22 506.707 1275.98 506.08 1275.5 505.64C1275.03 505.187 1274.32 504.96 1273.38 504.96C1272.75 504.96 1272.14 505.067 1271.54 505.28C1270.94 505.48 1270.43 505.753 1270.02 506.1L1269.22 504.66C1269.76 504.22 1270.42 503.887 1271.18 503.66C1271.95 503.42 1272.76 503.3 1273.6 503.3C1275.05 503.3 1276.17 503.653 1276.96 504.36C1277.74 505.067 1278.14 506.147 1278.14 507.6V514H1276.32ZM1272.84 514.12C1272.05 514.12 1271.36 513.987 1270.76 513.72C1270.17 513.453 1269.72 513.087 1269.4 512.62C1269.08 512.14 1268.92 511.6 1268.92 511C1268.92 510.427 1269.05 509.907 1269.32 509.44C1269.6 508.973 1270.04 508.6 1270.66 508.32C1271.28 508.04 1272.12 507.9 1273.18 507.9H1276.54V509.28H1273.26C1272.3 509.28 1271.65 509.44 1271.32 509.76C1270.98 510.08 1270.82 510.467 1270.82 510.92C1270.82 511.44 1271.02 511.86 1271.44 512.18C1271.85 512.487 1272.42 512.64 1273.16 512.64C1273.88 512.64 1274.5 512.48 1275.04 512.16C1275.58 511.84 1275.98 511.373 1276.22 510.76L1276.6 512.08C1276.34 512.707 1275.9 513.207 1275.26 513.58C1274.62 513.94 1273.81 514.12 1272.84 514.12ZM1281.59 514V503.4H1283.51V507.9H1289.55V503.4H1291.47V514H1289.55V509.56H1283.51V514H1281.59ZM1295.21 514V503.4H1297.13V514H1295.21ZM1296.17 501.36C1295.79 501.36 1295.48 501.24 1295.23 501C1294.99 500.76 1294.87 500.467 1294.87 500.12C1294.87 499.76 1294.99 499.46 1295.23 499.22C1295.48 498.98 1295.79 498.86 1296.17 498.86C1296.54 498.86 1296.85 498.98 1297.09 499.22C1297.34 499.447 1297.47 499.733 1297.47 500.08C1297.47 500.44 1297.35 500.747 1297.11 501C1296.87 501.24 1296.55 501.36 1296.17 501.36ZM1300.87 514V503.4H1310.69V514H1308.77V504.6L1309.23 505.08H1302.33L1302.79 504.6V514H1300.87ZM1314.95 518C1314.44 518 1313.95 517.913 1313.47 517.74C1312.99 517.58 1312.57 517.34 1312.23 517.02L1313.05 515.58C1313.31 515.833 1313.61 516.027 1313.93 516.16C1314.25 516.293 1314.59 516.36 1314.95 516.36C1315.41 516.36 1315.8 516.24 1316.11 516C1316.41 515.76 1316.7 515.333 1316.97 514.72L1317.63 513.26L1317.83 513.02L1321.99 503.4H1323.87L1318.73 515.06C1318.42 515.807 1318.07 516.393 1317.69 516.82C1317.31 517.247 1316.9 517.547 1316.45 517.72C1315.99 517.907 1315.49 518 1314.95 518ZM1317.47 514.34L1312.63 503.4H1314.63L1318.75 512.84L1317.47 514.34ZM1323.53 513.98L1323.65 512.36C1323.74 512.373 1323.83 512.387 1323.91 512.4C1323.99 512.413 1324.06 512.42 1324.13 512.42C1324.55 512.42 1324.89 512.273 1325.13 511.98C1325.38 511.687 1325.57 511.3 1325.69 510.82C1325.81 510.327 1325.89 509.773 1325.95 509.16C1326 508.547 1326.04 507.933 1326.07 507.32L1326.25 503.4H1334.39V514H1332.47V504.52L1332.93 505.08H1327.49L1327.93 504.5L1327.79 507.44C1327.75 508.373 1327.67 509.247 1327.57 510.06C1327.46 510.873 1327.29 511.587 1327.07 512.2C1326.85 512.813 1326.55 513.293 1326.17 513.64C1325.79 513.987 1325.31 514.16 1324.71 514.16C1324.53 514.16 1324.35 514.14 1324.15 514.1C1323.96 514.073 1323.75 514.033 1323.53 513.98ZM1344.88 514V510.28L1345.18 510.64H1341.8C1340.38 510.64 1339.28 510.34 1338.48 509.74C1337.69 509.14 1337.3 508.267 1337.3 507.12C1337.3 505.893 1337.72 504.967 1338.56 504.34C1339.41 503.713 1340.54 503.4 1341.96 503.4H1346.6V514H1344.88ZM1337.2 514L1340.08 509.94H1342.06L1339.26 514H1337.2ZM1344.88 509.68V504.54L1345.18 505.08H1342.02C1341.14 505.08 1340.46 505.247 1339.98 505.58C1339.5 505.9 1339.26 506.433 1339.26 507.18C1339.26 508.567 1340.15 509.26 1341.94 509.26H1345.18L1344.88 509.68ZM1350.34 514V503.4H1352.26V512.32H1358.06V503.4H1359.98V514H1350.34ZM1359.84 516.46V513.9L1360.32 514H1358.06V512.32H1361.66V516.46H1359.84ZM1364.15 514V503.4H1366.07V514H1364.15ZM1365.11 501.36C1364.74 501.36 1364.43 501.24 1364.17 501C1363.93 500.76 1363.81 500.467 1363.81 500.12C1363.81 499.76 1363.93 499.46 1364.17 499.22C1364.43 498.98 1364.74 498.86 1365.11 498.86C1365.49 498.86 1365.79 498.98 1366.03 499.22C1366.29 499.447 1366.41 499.733 1366.41 500.08C1366.41 500.44 1366.29 500.747 1366.05 501C1365.81 501.24 1365.5 501.36 1365.11 501.36ZM1369.82 514V503.4H1371.74V511.12L1378.24 503.4H1379.98V514H1378.06V506.28L1371.58 514H1369.82ZM1374.78 502.02C1373.8 502.02 1373.04 501.787 1372.48 501.32C1371.93 500.84 1371.65 500.153 1371.64 499.26H1372.94C1372.95 499.767 1373.12 500.167 1373.44 500.46C1373.77 500.753 1374.21 500.9 1374.76 500.9C1375.3 500.9 1375.74 500.753 1376.08 500.46C1376.41 500.167 1376.58 499.767 1376.6 499.26H1377.94C1377.92 500.153 1377.64 500.84 1377.08 501.32C1376.52 501.787 1375.75 502.02 1374.78 502.02ZM1253.86 545V534.4H1258.78C1260.02 534.4 1260.99 534.64 1261.7 535.12C1262.42 535.587 1262.78 536.253 1262.78 537.12C1262.78 537.987 1262.44 538.66 1261.76 539.14C1261.09 539.607 1260.21 539.84 1259.1 539.84L1259.4 539.32C1260.67 539.32 1261.61 539.553 1262.22 540.02C1262.83 540.487 1263.14 541.173 1263.14 542.08C1263.14 543 1262.79 543.72 1262.1 544.24C1261.42 544.747 1260.37 545 1258.96 545H1253.86ZM1255.74 543.52H1258.82C1259.62 543.52 1260.22 543.4 1260.62 543.16C1261.02 542.907 1261.22 542.507 1261.22 541.96C1261.22 541.4 1261.03 540.993 1260.66 540.74C1260.3 540.473 1259.73 540.34 1258.94 540.34H1255.74V543.52ZM1255.74 538.96H1258.62C1259.35 538.96 1259.91 538.827 1260.28 538.56C1260.67 538.28 1260.86 537.893 1260.86 537.4C1260.86 536.893 1260.67 536.513 1260.28 536.26C1259.91 536.007 1259.35 535.88 1258.62 535.88H1255.74V538.96ZM1270.87 545.12C1269.73 545.12 1268.73 544.887 1267.87 544.42C1267.01 543.953 1266.35 543.313 1265.87 542.5C1265.4 541.687 1265.17 540.753 1265.17 539.7C1265.17 538.647 1265.39 537.713 1265.85 536.9C1266.31 536.087 1266.95 535.453 1267.75 535C1268.56 534.533 1269.47 534.3 1270.49 534.3C1271.51 534.3 1272.42 534.527 1273.21 534.98C1273.99 535.433 1274.61 536.073 1275.05 536.9C1275.5 537.713 1275.73 538.667 1275.73 539.76C1275.73 539.84 1275.72 539.933 1275.71 540.04C1275.71 540.147 1275.7 540.247 1275.69 540.34H1266.67V538.96H1274.69L1273.91 539.44C1273.92 538.76 1273.78 538.153 1273.49 537.62C1273.19 537.087 1272.79 536.673 1272.27 536.38C1271.76 536.073 1271.17 535.92 1270.49 535.92C1269.82 535.92 1269.23 536.073 1268.71 536.38C1268.19 536.673 1267.78 537.093 1267.49 537.64C1267.19 538.173 1267.05 538.787 1267.05 539.48V539.8C1267.05 540.507 1267.21 541.14 1267.53 541.7C1267.86 542.247 1268.32 542.673 1268.91 542.98C1269.49 543.287 1270.17 543.44 1270.93 543.44C1271.55 543.44 1272.12 543.333 1272.63 543.12C1273.15 542.907 1273.6 542.587 1273.99 542.16L1275.05 543.4C1274.57 543.96 1273.97 544.387 1273.25 544.68C1272.54 544.973 1271.75 545.12 1270.87 545.12ZM1276.77 544.98L1276.89 543.36C1276.98 543.373 1277.07 543.387 1277.15 543.4C1277.23 543.413 1277.3 543.42 1277.37 543.42C1277.79 543.42 1278.13 543.273 1278.37 542.98C1278.62 542.687 1278.81 542.3 1278.93 541.82C1279.05 541.327 1279.13 540.773 1279.19 540.16C1279.24 539.547 1279.28 538.933 1279.31 538.32L1279.49 534.4H1287.63V545H1285.71V535.52L1286.17 536.08H1280.73L1281.17 535.5L1281.03 538.44C1280.99 539.373 1280.91 540.247 1280.81 541.06C1280.7 541.873 1280.53 542.587 1280.31 543.2C1280.09 543.813 1279.79 544.293 1279.41 544.64C1279.03 544.987 1278.55 545.16 1277.95 545.16C1277.77 545.16 1277.59 545.14 1277.39 545.1C1277.2 545.073 1276.99 545.033 1276.77 544.98ZM1291.34 545V534.4H1293.26V542.12L1299.76 534.4H1301.5V545H1299.58V537.28L1293.1 545H1291.34ZM1312.91 545L1308.81 539.84L1310.39 538.88L1315.17 545H1312.91ZM1305.23 545V534.4H1307.15V545H1305.23ZM1306.57 540.52V538.88H1310.07V540.52H1306.57ZM1310.55 539.92L1308.77 539.68L1312.83 534.4H1314.89L1310.55 539.92ZM1317.18 545V534.4H1319.1V542.12L1325.6 534.4H1327.34V545H1325.42V537.28L1318.94 545H1317.18ZM1329.39 545L1333.95 539.08L1333.93 540.06L1329.59 534.4H1331.73L1335.05 538.76H1334.23L1337.55 534.4H1339.65L1335.25 540.1L1335.27 539.08L1339.87 545H1337.69L1334.19 540.36L1334.97 540.48L1331.53 545H1329.39ZM1354.94 545L1350.84 539.84L1352.42 538.88L1357.2 545H1354.94ZM1347.26 545V534.4H1349.18V545H1347.26ZM1348.6 540.52V538.88H1352.1V540.52H1348.6ZM1352.58 539.92L1350.8 539.68L1354.86 534.4H1356.92L1352.58 539.92ZM1365.52 545V542.76L1365.42 542.34V538.52C1365.42 537.707 1365.18 537.08 1364.7 536.64C1364.23 536.187 1363.52 535.96 1362.58 535.96C1361.95 535.96 1361.34 536.067 1360.74 536.28C1360.14 536.48 1359.63 536.753 1359.22 537.1L1358.42 535.66C1358.96 535.22 1359.62 534.887 1360.38 534.66C1361.15 534.42 1361.96 534.3 1362.8 534.3C1364.25 534.3 1365.37 534.653 1366.16 535.36C1366.94 536.067 1367.34 537.147 1367.34 538.6V545H1365.52ZM1362.04 545.12C1361.25 545.12 1360.56 544.987 1359.96 544.72C1359.37 544.453 1358.92 544.087 1358.6 543.62C1358.28 543.14 1358.12 542.6 1358.12 542C1358.12 541.427 1358.25 540.907 1358.52 540.44C1358.8 539.973 1359.24 539.6 1359.86 539.32C1360.48 539.04 1361.32 538.9 1362.38 538.9H1365.74V540.28H1362.46C1361.5 540.28 1360.85 540.44 1360.52 540.76C1360.18 541.08 1360.02 541.467 1360.02 541.92C1360.02 542.44 1360.22 542.86 1360.64 543.18C1361.05 543.487 1361.62 543.64 1362.36 543.64C1363.08 543.64 1363.7 543.48 1364.24 543.16C1364.78 542.84 1365.18 542.373 1365.42 541.76L1365.8 543.08C1365.54 543.707 1365.1 544.207 1364.46 544.58C1363.82 544.94 1363.01 545.12 1362.04 545.12ZM1370.79 545V534.4H1380.61V545H1378.69V535.6L1379.15 536.08H1372.25L1372.71 535.6V545H1370.79ZM1384.33 545V534.4H1386.25V545H1384.33ZM1385.29 532.36C1384.92 532.36 1384.6 532.24 1384.35 532C1384.11 531.76 1383.99 531.467 1383.99 531.12C1383.99 530.76 1384.11 530.46 1384.35 530.22C1384.6 529.98 1384.92 529.86 1385.29 529.86C1385.66 529.86 1385.97 529.98 1386.21 530.22C1386.46 530.447 1386.59 530.733 1386.59 531.08C1386.59 531.44 1386.47 531.747 1386.23 532C1385.99 532.24 1385.68 532.36 1385.29 532.36ZM1392.09 545V535.58L1392.57 536.08H1388.21V534.4H1397.89V536.08H1393.55L1394.01 535.58V545H1392.09ZM1406.36 545V542.76L1406.26 542.34V538.52C1406.26 537.707 1406.02 537.08 1405.54 536.64C1405.07 536.187 1404.36 535.96 1403.42 535.96C1402.79 535.96 1402.18 536.067 1401.58 536.28C1400.98 536.48 1400.47 536.753 1400.06 537.1L1399.26 535.66C1399.8 535.22 1400.46 534.887 1401.22 534.66C1401.99 534.42 1402.8 534.3 1403.64 534.3C1405.09 534.3 1406.21 534.653 1407 535.36C1407.78 536.067 1408.18 537.147 1408.18 538.6V545H1406.36ZM1402.88 545.12C1402.09 545.12 1401.4 544.987 1400.8 544.72C1400.21 544.453 1399.76 544.087 1399.44 543.62C1399.12 543.14 1398.96 542.6 1398.96 542C1398.96 541.427 1399.09 540.907 1399.36 540.44C1399.64 539.973 1400.08 539.6 1400.7 539.32C1401.32 539.04 1402.16 538.9 1403.22 538.9H1406.58V540.28H1403.3C1402.34 540.28 1401.69 540.44 1401.36 540.76C1401.02 541.08 1400.86 541.467 1400.86 541.92C1400.86 542.44 1401.06 542.86 1401.48 543.18C1401.89 543.487 1402.46 543.64 1403.2 543.64C1403.92 543.64 1404.54 543.48 1405.08 543.16C1405.62 542.84 1406.02 542.373 1406.26 541.76L1406.64 543.08C1406.38 543.707 1405.94 544.207 1405.3 544.58C1404.66 544.94 1403.85 545.12 1402.88 545.12ZM1409.87 544.98L1409.99 543.36C1410.09 543.373 1410.17 543.387 1410.25 543.4C1410.33 543.413 1410.41 543.42 1410.47 543.42C1410.9 543.42 1411.23 543.273 1411.47 542.98C1411.73 542.687 1411.91 542.3 1412.03 541.82C1412.15 541.327 1412.24 540.773 1412.29 540.16C1412.35 539.547 1412.39 538.933 1412.41 538.32L1412.59 534.4H1420.73V545H1418.81V535.52L1419.27 536.08H1413.83L1414.27 535.5L1414.13 538.44C1414.09 539.373 1414.02 540.247 1413.91 541.06C1413.81 541.873 1413.64 542.587 1413.41 543.2C1413.2 543.813 1412.9 544.293 1412.51 544.64C1412.14 544.987 1411.65 545.16 1411.05 545.16C1410.88 545.16 1410.69 545.14 1410.49 545.1C1410.31 545.073 1410.1 545.033 1409.87 544.98ZM1424.45 545V534.4H1426.37V545H1424.45ZM1425.41 532.36C1425.03 532.36 1424.72 532.24 1424.47 532C1424.23 531.76 1424.11 531.467 1424.11 531.12C1424.11 530.76 1424.23 530.46 1424.47 530.22C1424.72 529.98 1425.03 529.86 1425.41 529.86C1425.78 529.86 1426.09 529.98 1426.33 530.22C1426.58 530.447 1426.71 530.733 1426.71 531.08C1426.71 531.44 1426.59 531.747 1426.35 532C1426.11 532.24 1425.79 532.36 1425.41 532.36ZM1430.11 545V534.4H1435.03C1436.27 534.4 1437.24 534.64 1437.95 535.12C1438.67 535.587 1439.03 536.253 1439.03 537.12C1439.03 537.987 1438.69 538.66 1438.01 539.14C1437.34 539.607 1436.46 539.84 1435.35 539.84L1435.65 539.32C1436.92 539.32 1437.86 539.553 1438.47 540.02C1439.08 540.487 1439.39 541.173 1439.39 542.08C1439.39 543 1439.04 543.72 1438.35 544.24C1437.67 544.747 1436.62 545 1435.21 545H1430.11ZM1431.99 543.52H1435.07C1435.87 543.52 1436.47 543.4 1436.87 543.16C1437.27 542.907 1437.47 542.507 1437.47 541.96C1437.47 541.4 1437.28 540.993 1436.91 540.74C1436.55 540.473 1435.98 540.34 1435.19 540.34H1431.99V543.52ZM1431.99 538.96H1434.87C1435.6 538.96 1436.16 538.827 1436.53 538.56C1436.92 538.28 1437.11 537.893 1437.11 537.4C1437.11 536.893 1436.92 536.513 1436.53 536.26C1436.16 536.007 1435.6 535.88 1434.87 535.88H1431.99V538.96Z" fill="white"/>
<path d="M1549.96 342.14C1549.16 342.14 1548.37 342.04 1547.6 341.84C1546.84 341.627 1546.16 341.327 1545.56 340.94L1546.14 339.48C1546.65 339.8 1547.23 340.053 1547.88 340.24C1548.53 340.413 1549.19 340.5 1549.86 340.5C1550.47 340.5 1551 340.427 1551.44 340.28C1551.89 340.133 1552.24 339.933 1552.48 339.68C1552.72 339.413 1552.84 339.107 1552.84 338.76C1552.84 338.267 1552.62 337.887 1552.18 337.62C1551.74 337.353 1551.13 337.22 1550.34 337.22H1548.42V335.84H1550.22C1550.69 335.84 1551.09 335.787 1551.44 335.68C1551.79 335.573 1552.05 335.413 1552.24 335.2C1552.44 334.973 1552.54 334.713 1552.54 334.42C1552.54 334.1 1552.43 333.827 1552.2 333.6C1551.97 333.373 1551.65 333.2 1551.24 333.08C1550.84 332.96 1550.37 332.9 1549.82 332.9C1549.29 332.913 1548.74 332.987 1548.18 333.12C1547.63 333.253 1547.07 333.46 1546.5 333.74L1545.98 332.24C1546.62 331.933 1547.25 331.7 1547.86 331.54C1548.49 331.367 1549.11 331.273 1549.72 331.26C1550.64 331.233 1551.46 331.34 1552.18 331.58C1552.9 331.807 1553.47 332.14 1553.88 332.58C1554.31 333.02 1554.52 333.54 1554.52 334.14C1554.52 334.647 1554.36 335.1 1554.04 335.5C1553.72 335.887 1553.29 336.193 1552.76 336.42C1552.23 336.647 1551.61 336.76 1550.92 336.76L1551 336.3C1552.19 336.3 1553.12 336.533 1553.8 337C1554.48 337.467 1554.82 338.1 1554.82 338.9C1554.82 339.54 1554.61 340.107 1554.18 340.6C1553.75 341.08 1553.17 341.46 1552.44 341.74C1551.72 342.007 1550.89 342.14 1549.96 342.14ZM1564.24 342V339.76L1564.14 339.34V335.52C1564.14 334.707 1563.9 334.08 1563.42 333.64C1562.95 333.187 1562.25 332.96 1561.3 332.96C1560.67 332.96 1560.06 333.067 1559.46 333.28C1558.86 333.48 1558.35 333.753 1557.94 334.1L1557.14 332.66C1557.69 332.22 1558.34 331.887 1559.1 331.66C1559.87 331.42 1560.68 331.3 1561.52 331.3C1562.97 331.3 1564.09 331.653 1564.88 332.36C1565.67 333.067 1566.06 334.147 1566.06 335.6V342H1564.24ZM1560.76 342.12C1559.97 342.12 1559.28 341.987 1558.68 341.72C1558.09 341.453 1557.64 341.087 1557.32 340.62C1557 340.14 1556.84 339.6 1556.84 339C1556.84 338.427 1556.97 337.907 1557.24 337.44C1557.52 336.973 1557.97 336.6 1558.58 336.32C1559.21 336.04 1560.05 335.9 1561.1 335.9H1564.46V337.28H1561.18C1560.22 337.28 1559.57 337.44 1559.24 337.76C1558.91 338.08 1558.74 338.467 1558.74 338.92C1558.74 339.44 1558.95 339.86 1559.36 340.18C1559.77 340.487 1560.35 340.64 1561.08 340.64C1561.8 340.64 1562.43 340.48 1562.96 340.16C1563.51 339.84 1563.9 339.373 1564.14 338.76L1564.52 340.08C1564.27 340.707 1563.82 341.207 1563.18 341.58C1562.54 341.94 1561.73 342.12 1560.76 342.12ZM1577.2 342L1573.1 336.84L1574.68 335.88L1579.46 342H1577.2ZM1569.52 342V331.4H1571.44V342H1569.52ZM1570.86 337.52V335.88H1574.36V337.52H1570.86ZM1574.84 336.92L1573.06 336.68L1577.12 331.4H1579.18L1574.84 336.92ZM1587.09 342.12C1586.21 342.12 1585.4 341.92 1584.67 341.52C1583.95 341.107 1583.37 340.5 1582.93 339.7C1582.5 338.9 1582.29 337.9 1582.29 336.7C1582.29 335.5 1582.5 334.5 1582.91 333.7C1583.34 332.9 1583.91 332.3 1584.63 331.9C1585.36 331.5 1586.18 331.3 1587.09 331.3C1588.13 331.3 1589.05 331.527 1589.85 331.98C1590.65 332.433 1591.28 333.067 1591.75 333.88C1592.22 334.68 1592.45 335.62 1592.45 336.7C1592.45 337.78 1592.22 338.727 1591.75 339.54C1591.28 340.353 1590.65 340.987 1589.85 341.44C1589.05 341.893 1588.13 342.12 1587.09 342.12ZM1581.47 345.88V331.4H1583.31V334.26L1583.19 336.72L1583.39 339.18V345.88H1581.47ZM1586.93 340.44C1587.61 340.44 1588.22 340.287 1588.75 339.98C1589.3 339.673 1589.72 339.24 1590.03 338.68C1590.35 338.107 1590.51 337.447 1590.51 336.7C1590.51 335.94 1590.35 335.287 1590.03 334.74C1589.72 334.18 1589.3 333.747 1588.75 333.44C1588.22 333.133 1587.61 332.98 1586.93 332.98C1586.26 332.98 1585.66 333.133 1585.11 333.44C1584.58 333.747 1584.15 334.18 1583.83 334.74C1583.52 335.287 1583.37 335.94 1583.37 336.7C1583.37 337.447 1583.52 338.107 1583.83 338.68C1584.15 339.24 1584.58 339.673 1585.11 339.98C1585.66 340.287 1586.26 340.44 1586.93 340.44ZM1595.24 342V331.4H1597.16V342H1595.24ZM1596.2 329.36C1595.83 329.36 1595.51 329.24 1595.26 329C1595.02 328.76 1594.9 328.467 1594.9 328.12C1594.9 327.76 1595.02 327.46 1595.26 327.22C1595.51 326.98 1595.83 326.86 1596.2 326.86C1596.57 326.86 1596.88 326.98 1597.12 327.22C1597.37 327.447 1597.5 327.733 1597.5 328.08C1597.5 328.44 1597.38 328.747 1597.14 329C1596.9 329.24 1596.59 329.36 1596.2 329.36ZM1600.9 342V331.4H1610.72V342H1608.8V332.6L1609.26 333.08H1602.36L1602.82 332.6V342H1600.9ZM1612.68 341.98L1612.8 340.36C1612.89 340.373 1612.98 340.387 1613.06 340.4C1613.14 340.413 1613.21 340.42 1613.28 340.42C1613.7 340.42 1614.04 340.273 1614.28 339.98C1614.53 339.687 1614.72 339.3 1614.84 338.82C1614.96 338.327 1615.04 337.773 1615.1 337.16C1615.15 336.547 1615.19 335.933 1615.22 335.32L1615.4 331.4H1623.54V342H1621.62V332.52L1622.08 333.08H1616.64L1617.08 332.5L1616.94 335.44C1616.9 336.373 1616.82 337.247 1616.72 338.06C1616.61 338.873 1616.44 339.587 1616.22 340.2C1616 340.813 1615.7 341.293 1615.32 341.64C1614.94 341.987 1614.46 342.16 1613.86 342.16C1613.68 342.16 1613.5 342.14 1613.3 342.1C1613.11 342.073 1612.9 342.033 1612.68 341.98ZM1631.97 342.12C1630.84 342.12 1629.84 341.887 1628.97 341.42C1628.12 340.953 1627.45 340.313 1626.97 339.5C1626.5 338.687 1626.27 337.753 1626.27 336.7C1626.27 335.647 1626.5 334.713 1626.95 333.9C1627.42 333.087 1628.05 332.453 1628.85 332C1629.66 331.533 1630.58 331.3 1631.59 331.3C1632.62 331.3 1633.52 331.527 1634.31 331.98C1635.1 332.433 1635.71 333.073 1636.15 333.9C1636.6 334.713 1636.83 335.667 1636.83 336.76C1636.83 336.84 1636.82 336.933 1636.81 337.04C1636.81 337.147 1636.8 337.247 1636.79 337.34H1627.77V335.96H1635.79L1635.01 336.44C1635.02 335.76 1634.88 335.153 1634.59 334.62C1634.3 334.087 1633.89 333.673 1633.37 333.38C1632.86 333.073 1632.27 332.92 1631.59 332.92C1630.92 332.92 1630.33 333.073 1629.81 333.38C1629.29 333.673 1628.88 334.093 1628.59 334.64C1628.3 335.173 1628.15 335.787 1628.15 336.48V336.8C1628.15 337.507 1628.31 338.14 1628.63 338.7C1628.96 339.247 1629.42 339.673 1630.01 339.98C1630.6 340.287 1631.27 340.44 1632.03 340.44C1632.66 340.44 1633.22 340.333 1633.73 340.12C1634.25 339.907 1634.7 339.587 1635.09 339.16L1636.15 340.4C1635.67 340.96 1635.07 341.387 1634.35 341.68C1633.64 341.973 1632.85 342.12 1631.97 342.12ZM1639.81 342V331.4H1641.73V335.9H1647.77V331.4H1649.69V342H1647.77V337.56H1641.73V342H1639.81ZM1653.42 342V331.4H1655.34V335.9H1661.38V331.4H1663.3V342H1661.38V337.56H1655.34V342H1653.42ZM1673.82 342V338.28L1674.12 338.64H1670.74C1669.32 338.64 1668.22 338.34 1667.42 337.74C1666.63 337.14 1666.24 336.267 1666.24 335.12C1666.24 333.893 1666.66 332.967 1667.5 332.34C1668.35 331.713 1669.48 331.4 1670.9 331.4H1675.54V342H1673.82ZM1666.14 342L1669.02 337.94H1671L1668.2 342H1666.14ZM1673.82 337.68V332.54L1674.12 333.08H1670.96C1670.08 333.08 1669.4 333.247 1668.92 333.58C1668.44 333.9 1668.2 334.433 1668.2 335.18C1668.2 336.567 1669.09 337.26 1670.88 337.26H1674.12L1673.82 337.68ZM1684.65 342V331.4H1686.57V335.9H1692.61V331.4H1694.53V342H1692.61V337.56H1686.57V342H1684.65ZM1704.77 342V339.76L1704.67 339.34V335.52C1704.67 334.707 1704.43 334.08 1703.95 333.64C1703.48 333.187 1702.77 332.96 1701.83 332.96C1701.2 332.96 1700.59 333.067 1699.99 333.28C1699.39 333.48 1698.88 333.753 1698.47 334.1L1697.67 332.66C1698.21 332.22 1698.87 331.887 1699.63 331.66C1700.4 331.42 1701.21 331.3 1702.05 331.3C1703.5 331.3 1704.62 331.653 1705.41 332.36C1706.19 333.067 1706.59 334.147 1706.59 335.6V342H1704.77ZM1701.29 342.12C1700.5 342.12 1699.81 341.987 1699.21 341.72C1698.62 341.453 1698.17 341.087 1697.85 340.62C1697.53 340.14 1697.37 339.6 1697.37 339C1697.37 338.427 1697.5 337.907 1697.77 337.44C1698.05 336.973 1698.49 336.6 1699.11 336.32C1699.73 336.04 1700.57 335.9 1701.63 335.9H1704.99V337.28H1701.71C1700.75 337.28 1700.1 337.44 1699.77 337.76C1699.43 338.08 1699.27 338.467 1699.27 338.92C1699.27 339.44 1699.47 339.86 1699.89 340.18C1700.3 340.487 1700.87 340.64 1701.61 340.64C1702.33 340.64 1702.95 340.48 1703.49 340.16C1704.03 339.84 1704.43 339.373 1704.67 338.76L1705.05 340.08C1704.79 340.707 1704.35 341.207 1703.71 341.58C1703.07 341.94 1702.26 342.12 1701.29 342.12ZM1546.86 373V362.4H1556.68V373H1554.76V363.6L1555.22 364.08H1548.32L1548.78 363.6V373H1546.86ZM1566.02 373.12C1565.14 373.12 1564.33 372.92 1563.6 372.52C1562.88 372.107 1562.3 371.5 1561.86 370.7C1561.43 369.9 1561.22 368.9 1561.22 367.7C1561.22 366.5 1561.42 365.5 1561.84 364.7C1562.26 363.9 1562.84 363.3 1563.56 362.9C1564.29 362.5 1565.11 362.3 1566.02 362.3C1567.06 362.3 1567.98 362.527 1568.78 362.98C1569.58 363.433 1570.21 364.067 1570.68 364.88C1571.14 365.68 1571.38 366.62 1571.38 367.7C1571.38 368.78 1571.14 369.727 1570.68 370.54C1570.21 371.353 1569.58 371.987 1568.78 372.44C1567.98 372.893 1567.06 373.12 1566.02 373.12ZM1560.4 376.88V362.4H1562.24V365.26L1562.12 367.72L1562.32 370.18V376.88H1560.4ZM1565.86 371.44C1566.54 371.44 1567.14 371.287 1567.68 370.98C1568.22 370.673 1568.65 370.24 1568.96 369.68C1569.28 369.107 1569.44 368.447 1569.44 367.7C1569.44 366.94 1569.28 366.287 1568.96 365.74C1568.65 365.18 1568.22 364.747 1567.68 364.44C1567.14 364.133 1566.54 363.98 1565.86 363.98C1565.19 363.98 1564.58 364.133 1564.04 364.44C1563.5 364.747 1563.08 365.18 1562.76 365.74C1562.45 366.287 1562.3 366.94 1562.3 367.7C1562.3 368.447 1562.45 369.107 1562.76 369.68C1563.08 370.24 1563.5 370.673 1564.04 370.98C1564.58 371.287 1565.19 371.44 1565.86 371.44ZM1580.57 373V370.76L1580.47 370.34V366.52C1580.47 365.707 1580.23 365.08 1579.75 364.64C1579.28 364.187 1578.57 363.96 1577.63 363.96C1577 363.96 1576.39 364.067 1575.79 364.28C1575.19 364.48 1574.68 364.753 1574.27 365.1L1573.47 363.66C1574.01 363.22 1574.67 362.887 1575.43 362.66C1576.2 362.42 1577.01 362.3 1577.85 362.3C1579.3 362.3 1580.42 362.653 1581.21 363.36C1581.99 364.067 1582.39 365.147 1582.39 366.6V373H1580.57ZM1577.09 373.12C1576.3 373.12 1575.61 372.987 1575.01 372.72C1574.42 372.453 1573.97 372.087 1573.65 371.62C1573.33 371.14 1573.17 370.6 1573.17 370C1573.17 369.427 1573.3 368.907 1573.57 368.44C1573.85 367.973 1574.29 367.6 1574.91 367.32C1575.53 367.04 1576.37 366.9 1577.43 366.9H1580.79V368.28H1577.51C1576.55 368.28 1575.9 368.44 1575.57 368.76C1575.23 369.08 1575.07 369.467 1575.07 369.92C1575.07 370.44 1575.27 370.86 1575.69 371.18C1576.1 371.487 1576.67 371.64 1577.41 371.64C1578.13 371.64 1578.75 371.48 1579.29 371.16C1579.83 370.84 1580.23 370.373 1580.47 369.76L1580.85 371.08C1580.59 371.707 1580.15 372.207 1579.51 372.58C1578.87 372.94 1578.06 373.12 1577.09 373.12ZM1593.52 373L1589.42 367.84L1591 366.88L1595.78 373H1593.52ZM1585.84 373V362.4H1587.76V373H1585.84ZM1587.18 368.52V366.88H1590.68V368.52H1587.18ZM1591.16 367.92L1589.38 367.68L1593.44 362.4H1595.5L1591.16 367.92ZM1599.72 373V363.58L1600.2 364.08H1595.84V362.4H1605.52V364.08H1601.18L1601.64 363.58V373H1599.72ZM1607.49 373V362.4H1609.41V370.12L1615.9 362.4H1617.65V373H1615.72V365.28L1609.25 373H1607.49ZM1621.37 373V362.4H1623.29V371.32H1629.09V362.4H1631.01V373H1621.37ZM1630.87 375.46V372.9L1631.35 373H1629.09V371.32H1632.69V375.46H1630.87ZM1635.18 373V362.4H1637.1V373H1635.18ZM1636.14 360.36C1635.77 360.36 1635.45 360.24 1635.2 360C1634.96 359.76 1634.84 359.467 1634.84 359.12C1634.84 358.76 1634.96 358.46 1635.2 358.22C1635.45 357.98 1635.77 357.86 1636.14 357.86C1636.51 357.86 1636.82 357.98 1637.06 358.22C1637.31 358.447 1637.44 358.733 1637.44 359.08C1637.44 359.44 1637.32 359.747 1637.08 360C1636.84 360.24 1636.53 360.36 1636.14 360.36ZM1646.76 377C1646.25 377 1645.76 376.913 1645.28 376.74C1644.8 376.58 1644.38 376.34 1644.04 376.02L1644.86 374.58C1645.12 374.833 1645.42 375.027 1645.74 375.16C1646.06 375.293 1646.4 375.36 1646.76 375.36C1647.22 375.36 1647.61 375.24 1647.92 375C1648.22 374.76 1648.51 374.333 1648.78 373.72L1649.44 372.26L1649.64 372.02L1653.8 362.4H1655.68L1650.54 374.06C1650.23 374.807 1649.88 375.393 1649.5 375.82C1649.12 376.247 1648.71 376.547 1648.26 376.72C1647.8 376.907 1647.3 377 1646.76 377ZM1649.28 373.34L1644.44 362.4H1646.44L1650.56 371.84L1649.28 373.34ZM1663.01 373V362.4H1664.93V366.9H1670.97V362.4H1672.89V373H1670.97V368.56H1664.93V373H1663.01ZM1683.13 373V370.76L1683.03 370.34V366.52C1683.03 365.707 1682.79 365.08 1682.31 364.64C1681.84 364.187 1681.13 363.96 1680.19 363.96C1679.56 363.96 1678.95 364.067 1678.35 364.28C1677.75 364.48 1677.24 364.753 1676.83 365.1L1676.03 363.66C1676.57 363.22 1677.23 362.887 1677.99 362.66C1678.76 362.42 1679.57 362.3 1680.41 362.3C1681.86 362.3 1682.98 362.653 1683.77 363.36C1684.55 364.067 1684.95 365.147 1684.95 366.6V373H1683.13ZM1679.65 373.12C1678.86 373.12 1678.17 372.987 1677.57 372.72C1676.98 372.453 1676.53 372.087 1676.21 371.62C1675.89 371.14 1675.73 370.6 1675.73 370C1675.73 369.427 1675.86 368.907 1676.13 368.44C1676.41 367.973 1676.85 367.6 1677.47 367.32C1678.09 367.04 1678.93 366.9 1679.99 366.9H1683.35V368.28H1680.07C1679.11 368.28 1678.46 368.44 1678.13 368.76C1677.79 369.08 1677.63 369.467 1677.63 369.92C1677.63 370.44 1677.83 370.86 1678.25 371.18C1678.66 371.487 1679.23 371.64 1679.97 371.64C1680.69 371.64 1681.31 371.48 1681.85 371.16C1682.39 370.84 1682.79 370.373 1683.03 369.76L1683.41 371.08C1683.15 371.707 1682.71 372.207 1682.07 372.58C1681.43 372.94 1680.62 373.12 1679.65 373.12ZM1695.44 371.32L1695 371.82V362.4H1696.92V371.82L1696.44 371.32H1702.04L1701.58 371.82V362.4H1703.5V373H1688.4V362.4H1690.32V371.82L1689.86 371.32H1695.44ZM1711.77 373.12C1710.7 373.12 1709.76 372.887 1708.93 372.42C1708.1 371.953 1707.45 371.313 1706.97 370.5C1706.49 369.673 1706.25 368.74 1706.25 367.7C1706.25 366.647 1706.49 365.713 1706.97 364.9C1707.45 364.087 1708.1 363.453 1708.93 363C1709.76 362.533 1710.7 362.3 1711.77 362.3C1712.82 362.3 1713.76 362.533 1714.59 363C1715.43 363.453 1716.08 364.087 1716.55 364.9C1717.03 365.7 1717.27 366.633 1717.27 367.7C1717.27 368.753 1717.03 369.687 1716.55 370.5C1716.08 371.313 1715.43 371.953 1714.59 372.42C1713.76 372.887 1712.82 373.12 1711.77 373.12ZM1711.77 371.44C1712.45 371.44 1713.06 371.287 1713.59 370.98C1714.14 370.673 1714.56 370.24 1714.87 369.68C1715.18 369.107 1715.33 368.447 1715.33 367.7C1715.33 366.94 1715.18 366.287 1714.87 365.74C1714.56 365.18 1714.14 364.747 1713.59 364.44C1713.06 364.133 1712.45 363.98 1711.77 363.98C1711.09 363.98 1710.48 364.133 1709.95 364.44C1709.42 364.747 1708.99 365.18 1708.67 365.74C1708.35 366.287 1708.19 366.94 1708.19 367.7C1708.19 368.447 1708.35 369.107 1708.67 369.68C1708.99 370.24 1709.42 370.673 1709.95 370.98C1710.48 371.287 1711.09 371.44 1711.77 371.44ZM1720.04 373V362.4H1722.02L1726.58 370.24H1725.78L1730.46 362.4H1732.26V373H1730.52V364.56L1730.84 364.74L1726.56 371.8H1725.72L1721.42 364.6L1721.8 364.52V373H1720.04ZM1736.54 377C1736.03 377 1735.54 376.913 1735.06 376.74C1734.58 376.58 1734.17 376.34 1733.82 376.02L1734.64 374.58C1734.91 374.833 1735.2 375.027 1735.52 375.16C1735.84 375.293 1736.18 375.36 1736.54 375.36C1737.01 375.36 1737.39 375.24 1737.7 375C1738.01 374.76 1738.29 374.333 1738.56 373.72L1739.22 372.26L1739.42 372.02L1743.58 362.4H1745.46L1740.32 374.06C1740.01 374.807 1739.67 375.393 1739.28 375.82C1738.91 376.247 1738.49 376.547 1738.04 376.72C1737.59 376.907 1737.09 377 1736.54 377ZM1739.06 373.34L1734.22 362.4H1736.22L1740.34 371.84L1739.06 373.34ZM1549.96 403.14C1549.16 403.14 1548.37 403.04 1547.6 402.84C1546.84 402.627 1546.16 402.327 1545.56 401.94L1546.14 400.48C1546.65 400.8 1547.23 401.053 1547.88 401.24C1548.53 401.413 1549.19 401.5 1549.86 401.5C1550.47 401.5 1551 401.427 1551.44 401.28C1551.89 401.133 1552.24 400.933 1552.48 400.68C1552.72 400.413 1552.84 400.107 1552.84 399.76C1552.84 399.267 1552.62 398.887 1552.18 398.62C1551.74 398.353 1551.13 398.22 1550.34 398.22H1548.42V396.84H1550.22C1550.69 396.84 1551.09 396.787 1551.44 396.68C1551.79 396.573 1552.05 396.413 1552.24 396.2C1552.44 395.973 1552.54 395.713 1552.54 395.42C1552.54 395.1 1552.43 394.827 1552.2 394.6C1551.97 394.373 1551.65 394.2 1551.24 394.08C1550.84 393.96 1550.37 393.9 1549.82 393.9C1549.29 393.913 1548.74 393.987 1548.18 394.12C1547.63 394.253 1547.07 394.46 1546.5 394.74L1545.98 393.24C1546.62 392.933 1547.25 392.7 1547.86 392.54C1548.49 392.367 1549.11 392.273 1549.72 392.26C1550.64 392.233 1551.46 392.34 1552.18 392.58C1552.9 392.807 1553.47 393.14 1553.88 393.58C1554.31 394.02 1554.52 394.54 1554.52 395.14C1554.52 395.647 1554.36 396.1 1554.04 396.5C1553.72 396.887 1553.29 397.193 1552.76 397.42C1552.23 397.647 1551.61 397.76 1550.92 397.76L1551 397.3C1552.19 397.3 1553.12 397.533 1553.8 398C1554.48 398.467 1554.82 399.1 1554.82 399.9C1554.82 400.54 1554.61 401.107 1554.18 401.6C1553.75 402.08 1553.17 402.46 1552.44 402.74C1551.72 403.007 1550.89 403.14 1549.96 403.14ZM1564.24 403V400.76L1564.14 400.34V396.52C1564.14 395.707 1563.9 395.08 1563.42 394.64C1562.95 394.187 1562.25 393.96 1561.3 393.96C1560.67 393.96 1560.06 394.067 1559.46 394.28C1558.86 394.48 1558.35 394.753 1557.94 395.1L1557.14 393.66C1557.69 393.22 1558.34 392.887 1559.1 392.66C1559.87 392.42 1560.68 392.3 1561.52 392.3C1562.97 392.3 1564.09 392.653 1564.88 393.36C1565.67 394.067 1566.06 395.147 1566.06 396.6V403H1564.24ZM1560.76 403.12C1559.97 403.12 1559.28 402.987 1558.68 402.72C1558.09 402.453 1557.64 402.087 1557.32 401.62C1557 401.14 1556.84 400.6 1556.84 400C1556.84 399.427 1556.97 398.907 1557.24 398.44C1557.52 397.973 1557.97 397.6 1558.58 397.32C1559.21 397.04 1560.05 396.9 1561.1 396.9H1564.46V398.28H1561.18C1560.22 398.28 1559.57 398.44 1559.24 398.76C1558.91 399.08 1558.74 399.467 1558.74 399.92C1558.74 400.44 1558.95 400.86 1559.36 401.18C1559.77 401.487 1560.35 401.64 1561.08 401.64C1561.8 401.64 1562.43 401.48 1562.96 401.16C1563.51 400.84 1563.9 400.373 1564.14 399.76L1564.52 401.08C1564.27 401.707 1563.82 402.207 1563.18 402.58C1562.54 402.94 1561.73 403.12 1560.76 403.12ZM1577.2 403L1573.1 397.84L1574.68 396.88L1579.46 403H1577.2ZM1569.52 403V392.4H1571.44V403H1569.52ZM1570.86 398.52V396.88H1574.36V398.52H1570.86ZM1574.84 397.92L1573.06 397.68L1577.12 392.4H1579.18L1574.84 397.92ZM1587.09 403.12C1586.21 403.12 1585.4 402.92 1584.67 402.52C1583.95 402.107 1583.37 401.5 1582.93 400.7C1582.5 399.9 1582.29 398.9 1582.29 397.7C1582.29 396.5 1582.5 395.5 1582.91 394.7C1583.34 393.9 1583.91 393.3 1584.63 392.9C1585.36 392.5 1586.18 392.3 1587.09 392.3C1588.13 392.3 1589.05 392.527 1589.85 392.98C1590.65 393.433 1591.28 394.067 1591.75 394.88C1592.22 395.68 1592.45 396.62 1592.45 397.7C1592.45 398.78 1592.22 399.727 1591.75 400.54C1591.28 401.353 1590.65 401.987 1589.85 402.44C1589.05 402.893 1588.13 403.12 1587.09 403.12ZM1581.47 406.88V392.4H1583.31V395.26L1583.19 397.72L1583.39 400.18V406.88H1581.47ZM1586.93 401.44C1587.61 401.44 1588.22 401.287 1588.75 400.98C1589.3 400.673 1589.72 400.24 1590.03 399.68C1590.35 399.107 1590.51 398.447 1590.51 397.7C1590.51 396.94 1590.35 396.287 1590.03 395.74C1589.72 395.18 1589.3 394.747 1588.75 394.44C1588.22 394.133 1587.61 393.98 1586.93 393.98C1586.26 393.98 1585.66 394.133 1585.11 394.44C1584.58 394.747 1584.15 395.18 1583.83 395.74C1583.52 396.287 1583.37 396.94 1583.37 397.7C1583.37 398.447 1583.52 399.107 1583.83 399.68C1584.15 400.24 1584.58 400.673 1585.11 400.98C1585.66 401.287 1586.26 401.44 1586.93 401.44ZM1595.24 403V392.4H1597.16V400.12L1603.66 392.4H1605.4V403H1603.48V395.28L1597 403H1595.24ZM1611.23 403V393.58L1611.71 394.08H1607.35V392.4H1617.03V394.08H1612.69L1613.15 393.58V403H1611.23ZM1623.06 403.12C1621.99 403.12 1621.05 402.887 1620.22 402.42C1619.39 401.953 1618.74 401.313 1618.26 400.5C1617.78 399.673 1617.54 398.74 1617.54 397.7C1617.54 396.647 1617.78 395.713 1618.26 394.9C1618.74 394.087 1619.39 393.453 1620.22 393C1621.05 392.533 1621.99 392.3 1623.06 392.3C1624.11 392.3 1625.05 392.533 1625.88 393C1626.72 393.453 1627.37 394.087 1627.84 394.9C1628.32 395.7 1628.56 396.633 1628.56 397.7C1628.56 398.753 1628.32 399.687 1627.84 400.5C1627.37 401.313 1626.72 401.953 1625.88 402.42C1625.05 402.887 1624.11 403.12 1623.06 403.12ZM1623.06 401.44C1623.74 401.44 1624.35 401.287 1624.88 400.98C1625.43 400.673 1625.85 400.24 1626.16 399.68C1626.47 399.107 1626.62 398.447 1626.62 397.7C1626.62 396.94 1626.47 396.287 1626.16 395.74C1625.85 395.18 1625.43 394.747 1624.88 394.44C1624.35 394.133 1623.74 393.98 1623.06 393.98C1622.38 393.98 1621.77 394.133 1621.24 394.44C1620.71 394.747 1620.28 395.18 1619.96 395.74C1619.64 396.287 1619.48 396.94 1619.48 397.7C1619.48 398.447 1619.64 399.107 1619.96 399.68C1620.28 400.24 1620.71 400.673 1621.24 400.98C1621.77 401.287 1622.38 401.44 1623.06 401.44ZM1631.33 403V392.4H1633.31L1637.87 400.24H1637.07L1641.75 392.4H1643.55V403H1641.81V394.56L1642.13 394.74L1637.85 401.8H1637.01L1632.71 394.6L1633.09 394.52V403H1631.33ZM1647.83 407C1647.32 407 1646.83 406.913 1646.35 406.74C1645.87 406.58 1645.46 406.34 1645.11 406.02L1645.93 404.58C1646.2 404.833 1646.49 405.027 1646.81 405.16C1647.13 405.293 1647.47 405.36 1647.83 405.36C1648.3 405.36 1648.68 405.24 1648.99 405C1649.3 404.76 1649.58 404.333 1649.85 403.72L1650.51 402.26L1650.71 402.02L1654.87 392.4H1656.75L1651.61 404.06C1651.3 404.807 1650.96 405.393 1650.57 405.82C1650.2 406.247 1649.78 406.547 1649.33 406.72C1648.88 406.907 1648.38 407 1647.83 407ZM1650.35 403.34L1645.51 392.4H1647.51L1651.63 401.84L1650.35 403.34ZM1671.77 403L1667.67 397.84L1669.25 396.88L1674.03 403H1671.77ZM1664.09 403V392.4H1666.01V403H1664.09ZM1665.43 398.52V396.88H1668.93V398.52H1665.43ZM1669.41 397.92L1667.63 397.68L1671.69 392.4H1673.75L1669.41 397.92ZM1680.23 403.12C1679.16 403.12 1678.21 402.887 1677.39 402.42C1676.56 401.953 1675.91 401.313 1675.43 400.5C1674.95 399.673 1674.71 398.74 1674.71 397.7C1674.71 396.647 1674.95 395.713 1675.43 394.9C1675.91 394.087 1676.56 393.453 1677.39 393C1678.21 392.533 1679.16 392.3 1680.23 392.3C1681.28 392.3 1682.22 392.533 1683.05 393C1683.89 393.453 1684.54 394.087 1685.01 394.9C1685.49 395.7 1685.73 396.633 1685.73 397.7C1685.73 398.753 1685.49 399.687 1685.01 400.5C1684.54 401.313 1683.89 401.953 1683.05 402.42C1682.22 402.887 1681.28 403.12 1680.23 403.12ZM1680.23 401.44C1680.91 401.44 1681.51 401.287 1682.05 400.98C1682.59 400.673 1683.02 400.24 1683.33 399.68C1683.63 399.107 1683.79 398.447 1683.79 397.7C1683.79 396.94 1683.63 396.287 1683.33 395.74C1683.02 395.18 1682.59 394.747 1682.05 394.44C1681.51 394.133 1680.91 393.98 1680.23 393.98C1679.55 393.98 1678.94 394.133 1678.41 394.44C1677.87 394.747 1677.45 395.18 1677.13 395.74C1676.81 396.287 1676.65 396.94 1676.65 397.7C1676.65 398.447 1676.81 399.107 1677.13 399.68C1677.45 400.24 1677.87 400.673 1678.41 400.98C1678.94 401.287 1679.55 401.44 1680.23 401.44ZM1688.5 403V392.4H1690.48L1695.04 400.24H1694.24L1698.92 392.4H1700.72V403H1698.98V394.56L1699.3 394.74L1695.02 401.8H1694.18L1689.88 394.6L1690.26 394.52V403H1688.5ZM1704.46 403V392.4H1706.38V396.74H1709.58V398.52H1706.38V403H1704.46ZM1713.84 403.12C1712.8 403.12 1711.87 402.887 1711.06 402.42C1710.26 401.953 1709.62 401.313 1709.16 400.5C1708.69 399.673 1708.46 398.74 1708.46 397.7C1708.46 396.647 1708.69 395.713 1709.16 394.9C1709.62 394.073 1710.26 393.433 1711.06 392.98C1711.87 392.527 1712.8 392.3 1713.84 392.3C1714.86 392.3 1715.78 392.527 1716.6 392.98C1717.41 393.433 1718.05 394.073 1718.52 394.9C1718.98 395.713 1719.22 396.647 1719.22 397.7C1719.22 398.753 1718.98 399.687 1718.52 400.5C1718.05 401.313 1717.41 401.953 1716.6 402.42C1715.78 402.887 1714.86 403.12 1713.84 403.12ZM1713.84 401.44C1714.5 401.44 1715.1 401.287 1715.62 400.98C1716.14 400.66 1716.55 400.227 1716.86 399.68C1717.16 399.12 1717.32 398.46 1717.32 397.7C1717.32 396.94 1717.16 396.287 1716.86 395.74C1716.55 395.18 1716.14 394.747 1715.62 394.44C1715.1 394.133 1714.5 393.98 1713.84 393.98C1713.18 393.98 1712.59 394.133 1712.06 394.44C1711.54 394.747 1711.12 395.18 1710.82 395.74C1710.51 396.287 1710.36 396.94 1710.36 397.7C1710.36 398.46 1710.51 399.12 1710.82 399.68C1711.12 400.227 1711.54 400.66 1712.06 400.98C1712.59 401.287 1713.18 401.44 1713.84 401.44ZM1721.98 403V392.4H1723.9V396.9H1729.94V392.4H1731.86V403H1729.94V398.56H1723.9V403H1721.98ZM1735.59 403V392.4H1737.51V403H1735.59ZM1736.55 390.36C1736.18 390.36 1735.86 390.24 1735.61 390C1735.37 389.76 1735.25 389.467 1735.25 389.12C1735.25 388.76 1735.37 388.46 1735.61 388.22C1735.86 387.98 1736.18 387.86 1736.55 387.86C1736.92 387.86 1737.23 387.98 1737.47 388.22C1737.72 388.447 1737.85 388.733 1737.85 389.08C1737.85 389.44 1737.73 389.747 1737.49 390C1737.25 390.24 1736.94 390.36 1736.55 390.36ZM1743.35 403V393.58L1743.83 394.08H1739.47V392.4H1749.15V394.08H1744.81L1745.27 393.58V403H1743.35ZM1751.12 403V392.4H1753.04V403H1751.12ZM1752.08 390.36C1751.7 390.36 1751.39 390.24 1751.14 390C1750.9 389.76 1750.78 389.467 1750.78 389.12C1750.78 388.76 1750.9 388.46 1751.14 388.22C1751.39 387.98 1751.7 387.86 1752.08 387.86C1752.45 387.86 1752.76 387.98 1753 388.22C1753.25 388.447 1753.38 388.733 1753.38 389.08C1753.38 389.44 1753.26 389.747 1753.02 390C1752.78 390.24 1752.46 390.36 1752.08 390.36Z" fill="white"/>
<defs>
<linearGradient id="paint0_linear_147_76" x1="959.753" y1="435.86" x2="959.753" y2="1333" gradientUnits="userSpaceOnUse">
<stop offset="0.51" stop-color="#00DBB5" stop-opacity="0.13"/>
<stop offset="0.91" stop-opacity="0"/>
</linearGradient>
<linearGradient id="paint1_linear_147_76" x1="269" y1="706" x2="269" y2="1336" gradientUnits="userSpaceOnUse">
<stop stop-color="#2DB69E"/>
<stop offset="1" stop-color="#2DB69E" stop-opacity="0"/>
</linearGradient>
</defs>
</svg>
